<?xml version="1.0" encoding="utf-8" ?><svg xmlns="http://www.w3.org/2000/svg" xmlns:xlink="http://www.w3.org/1999/xlink" width="1030" height="1030" viewBox="0 0 1030 1030"><path fill="#F2F5F6" transform="matrix(8.04688 0 0 8.04688 0.000244141 0)" d="M41.9797 22.5422C42.308 28.3832 43.5161 37.4084 42.9851 42.7061C42.2771 43.4102 41.6532 44.0216 40.8979 44.6743L40.0042 45.5087L39.9348 45.5484C39.0025 46.0738 38.6085 46.1241 37.5534 46.3274C37.9931 48.6102 38.6171 47.5247 37.7296 50.6729C37.5869 51.1782 37.4382 51.6817 37.2834 52.1834C37.1121 53.2174 37.2819 53.2121 36.6503 53.8536C34.1083 54.7151 28.099 53.1605 26.1932 55.837C27.9299 55.6719 34.7949 54.7952 35.8018 55.4698C36.479 56.6148 37.0653 57.6574 37.8957 58.7059C37.9585 59.8349 38.0623 61.0248 37.924 62.1425C37.9231 64.3748 38.8229 64.7122 38.3672 67.2865C37.728 68.807 36.8254 69.9965 35.3322 70.7907L30.4037 70.6888C29.1807 70.6827 24.1919 70.5763 23.3207 70.8811C22.5318 71.0608 21.7263 71.2353 20.9413 71.4247C21.1538 70.5043 21.1216 70.1199 21.0927 69.1808C20.8995 68.5122 20.9139 65.3002 20.9018 64.3978C20.7976 65.381 20.5277 67.794 20.1244 68.6239C19.9654 67.42 20.0112 66.5144 20.0461 65.3168C20.038 64.0431 19.8783 61.5939 20.6756 60.6826C21.4424 60.9574 22.1975 61.2429 22.8944 60.6162L22.549 60.173C22.2282 60.1041 21.1223 60.0722 20.7354 60.0525C21.2575 57.1238 18.8719 55.0461 20.8727 49.9378C21.9572 49.1558 22.5986 48.6392 23.5848 47.7373C24.9465 42.7118 27.5819 46.4257 29.6661 44.889C29.8652 43.9243 28.3013 42.2428 28.2922 41.5865C28.2483 38.4232 26.7273 24.0244 30.146 23.0238C31.2277 23.5851 30.5638 23.5637 31.411 24.595C31.6955 24.9413 32.8485 25.7142 33.0384 25.9078C34.7549 27.6577 33.5756 33.7907 33.9974 36.3311C34.21 37.6117 34.0777 38.7 35.063 39.57C36.7825 39.7415 37.2326 38.1579 37.1076 36.7762C36.8326 33.735 37.3813 31.3223 37.9699 28.3643L37.9366 26.9734C38.1975 25.8516 41.0188 23.5535 41.9797 22.5422ZM24.2572 62.7741C25.4769 62.9771 29.943 63.2075 30.9017 62.7114C29.8111 61.8285 25.3777 61.6613 24.27 62.4892L24.2572 62.7741Z"/><path fill="#015400" transform="matrix(8.04688 0 0 8.04688 0.000244141 0)" d="M41.9797 22.5422C42.308 28.3832 43.5161 37.4084 42.9851 42.7061C42.2771 43.4102 41.6532 44.0216 40.8979 44.6743L40.0042 45.5087L39.9348 45.5484C39.0025 46.0738 38.6085 46.1241 37.5534 46.3274C37.9931 48.6102 38.6171 47.5247 37.7296 50.6729C37.5869 51.1782 37.4382 51.6817 37.2834 52.1834L37.1142 52.0946C37.1586 50.776 37.2431 49.3303 37.1474 48.0238C33.915 47.7382 25.3253 47.0737 22.9374 49.2369C22.319 49.797 21.5948 50.739 21.0797 51.443C20.8542 53.4969 20.212 57.7125 21.6611 59.3155L22.549 60.173C22.2282 60.1041 21.1223 60.0722 20.7354 60.0525C21.2575 57.1238 18.8719 55.0461 20.8727 49.9378C21.9572 49.1558 22.5986 48.6392 23.5848 47.7373C24.9465 42.7118 27.5819 46.4257 29.6661 44.889C29.8652 43.9243 28.3013 42.2428 28.2922 41.5865C28.2483 38.4232 26.7273 24.0244 30.146 23.0238C31.2277 23.5851 30.5638 23.5637 31.411 24.595C31.6955 24.9413 32.8485 25.7142 33.0384 25.9078C34.7549 27.6577 33.5756 33.7907 33.9974 36.3311C34.21 37.6117 34.0777 38.7 35.063 39.57C36.7825 39.7415 37.2326 38.1579 37.1076 36.7762C36.8326 33.735 37.3813 31.3223 37.9699 28.3643L37.9366 26.9734C38.1975 25.8516 41.0188 23.5535 41.9797 22.5422Z"/><path fill="#F2F5F6" transform="matrix(8.04688 0 0 8.04688 0.000244141 0)" d="M37.9366 26.9734C39.2748 26.942 40.6827 26.8848 42.0152 26.8926C42.1408 31.0256 42.1695 35.161 42.1011 39.2953L41.3 39.1147C40.0565 37.8217 39.7332 37.6033 37.9743 37.2723C37.8673 34.1622 37.8913 31.4775 37.9699 28.3643L37.9366 26.9734Z"/><path fill="#F2F5F6" transform="matrix(8.04688 0 0 8.04688 0.000244141 0)" d="M28.9709 28.3781C28.9866 27.3601 28.825 27.5338 29.4033 26.9029C30.3646 26.533 31.91 26.785 32.9835 26.8805C33.1689 30.2375 33.1064 33.6454 33.0874 37.0098C31.4714 37.24 31.0034 38.0887 29.499 38.9795C28.7381 38.2116 29.1204 30.3743 28.9709 28.3781Z"/><path fill="#ABC8CA" transform="matrix(8.04688 0 0 8.04688 0.000244141 0)" d="M29.499 38.9795C31.0034 38.0887 31.4714 37.24 33.0874 37.0098C33.6941 41.3446 37.3427 41.102 37.9743 37.2723C39.7332 37.6033 40.0565 37.8217 41.3 39.1147C40.8582 39.9893 38.5868 41.7884 37.6707 42.422C37.6472 42.4383 35.7157 41.9005 35.2984 41.9232C33.6146 41.2764 31.7302 40.8687 30.0971 40.043C29.5816 39.7823 29.6877 39.6632 29.499 38.9795Z"/><path fill="#B0D8CB" transform="matrix(8.04688 0 0 8.04688 0.000244141 0)" d="M41.3 39.1147L42.1011 39.2953C42.1088 39.847 42.1163 40.5092 42.097 41.0602C41.9307 45.8144 35.0029 44.2692 31.9757 43.9658C31.559 43.924 31.0705 43.6726 30.7546 43.4617C32.1426 42.5185 33.3153 43.0209 35.2984 41.9232C35.7157 41.9005 37.6472 42.4383 37.6707 42.422C38.5868 41.7884 40.8582 39.9893 41.3 39.1147Z"/><path fill="#B6EBD2" transform="matrix(8.04688 0 0 8.04688 0.000244141 0)" d="M28.8642 41.4541C28.7012 39.0482 28.749 30.5404 28.9709 28.3781C29.1204 30.3743 28.7381 38.2116 29.499 38.9795C29.6877 39.6632 29.5816 39.7823 30.0971 40.043C31.7302 40.8687 33.6146 41.2764 35.2984 41.9232C33.3153 43.0209 32.1426 42.5185 30.7546 43.4617C29.9101 42.9614 29.4533 42.2386 28.8642 41.4541Z"/><defs><linearGradient id="gradient_0" gradientUnits="userSpaceOnUse" x1="29.442503" y1="59.899208" x2="28.454885" y2="69.211113"><stop offset="0" stop-color="#A6BCC3"/><stop offset="1" stop-color="#C4DEE1"/></linearGradient></defs><path fill="url(#gradient_0)" transform="matrix(8.04688 0 0 8.04688 0.000244141 0)" d="M26.1932 55.837C27.9299 55.6719 34.7949 54.7952 35.8018 55.4698C36.479 56.6148 37.0653 57.6574 37.8957 58.7059C37.9585 59.8349 38.0623 61.0248 37.924 62.1425C37.9231 64.3748 38.8229 64.7122 38.3672 67.2865C37.728 68.807 36.8254 69.9965 35.3322 70.7907L30.4037 70.6888C29.1807 70.6827 24.1919 70.5763 23.3207 70.8811C22.5318 71.0608 21.7263 71.2353 20.9413 71.4247C21.1538 70.5043 21.1216 70.1199 21.0927 69.1808C20.8995 68.5122 20.9139 65.3002 20.9018 64.3978C20.7976 65.381 20.5277 67.794 20.1244 68.6239C19.9654 67.42 20.0112 66.5144 20.0461 65.3168C20.038 64.0431 19.8783 61.5939 20.6756 60.6826C21.4424 60.9574 22.1975 61.2429 22.8944 60.6162C24.8094 61.3653 28.7503 60.7483 31.8201 61.3514C31.6188 60.9896 31.5162 60.8512 31.4738 60.4257L32.5786 59.4764C33.674 60.608 35.4146 62.394 37.0416 62.5422C37.102 61.1546 37.0032 59.7934 36.9263 58.4081C36.3622 57.6619 35.3352 56.7026 34.6454 56.0182C31.5622 55.7152 29.0412 56.0763 26.1932 55.837ZM24.2572 62.7741C25.4769 62.9771 29.943 63.2075 30.9017 62.7114C29.8111 61.8285 25.3777 61.6613 24.27 62.4892L24.2572 62.7741Z"/><path fill="#246B08" transform="matrix(8.04688 0 0 8.04688 0.000244141 0)" d="M22.8944 60.6162C24.8094 61.3653 28.7503 60.7483 31.8201 61.3514C31.8928 62.596 32.1112 62.7146 31.5762 63.6024C29.9797 64.5034 27.52 63.9177 25.3507 63.9418C24.2106 63.9385 22.1874 63.8501 21.1594 64.1403L20.9018 64.3978C20.7976 65.381 20.5277 67.794 20.1244 68.6239C19.9654 67.42 20.0112 66.5144 20.0461 65.3168C20.038 64.0431 19.8783 61.5939 20.6756 60.6826C21.4424 60.9574 22.1975 61.2429 22.8944 60.6162ZM24.2572 62.7741C25.4769 62.9771 29.943 63.2075 30.9017 62.7114C29.8111 61.8285 25.3777 61.6613 24.27 62.4892L24.2572 62.7741Z"/><path fill="#030901" fill-opacity="0.039215688" transform="matrix(8.04688 0 0 8.04688 0.000244141 0)" d="M24.27 62.4892C25.3777 61.6613 29.8111 61.8285 30.9017 62.7114C29.943 63.2075 25.4769 62.9771 24.2572 62.7741L24.27 62.4892Z"/><path fill="#013901" transform="matrix(8.04688 0 0 8.04688 0.000244141 0)" d="M20.0461 65.3168C20.7528 64.284 20.3884 62.6215 21.1907 61.7746C22.2144 61.5424 23.255 62.1001 24.27 62.4892L24.2572 62.7741C24.5147 63.5891 24.4991 63.3861 25.3507 63.9418C24.2106 63.9385 22.1874 63.8501 21.1594 64.1403L20.9018 64.3978C20.7976 65.381 20.5277 67.794 20.1244 68.6239C19.9654 67.42 20.0112 66.5144 20.0461 65.3168Z"/><path fill="#07CF0A" transform="matrix(8.04688 0 0 8.04688 0.000244141 0)" d="M26.1932 55.837C27.9299 55.6719 34.7949 54.7952 35.8018 55.4698C36.479 56.6148 37.0653 57.6574 37.8957 58.7059C37.9585 59.8349 38.0623 61.0248 37.924 62.1425C37.9231 64.3748 38.8229 64.7122 38.3672 67.2865C37.728 68.807 36.8254 69.9965 35.3322 70.7907L30.4037 70.6888C31.3197 70.297 33.3383 70.5173 35.1854 69.8939C35.2233 69.5073 35.265 69.6548 35.024 69.3418L33.5597 69.1558C35.623 68.4646 35.8075 68.0708 36.9545 66.2554C37.0563 65.1114 37.0317 63.7093 37.0416 62.5422C37.102 61.1546 37.0032 59.7934 36.9263 58.4081C36.3622 57.6619 35.3352 56.7026 34.6454 56.0182C31.5622 55.7152 29.0412 56.0763 26.1932 55.837Z"/><path fill="#06C70C" transform="matrix(8.04688 0 0 8.04688 0.000244141 0)" d="M21.0927 69.1808C22.6487 69.0049 32.6677 68.6073 33.5597 69.1558L35.024 69.3418C35.265 69.6548 35.2233 69.5073 35.1854 69.8939C33.3383 70.5173 31.3197 70.297 30.4037 70.6888C29.1807 70.6827 24.1919 70.5763 23.3207 70.8811C22.5318 71.0608 21.7263 71.2353 20.9413 71.4247C21.1538 70.5043 21.1216 70.1199 21.0927 69.1808Z"/><path fill="#9ABABF" transform="matrix(8.04688 0 0 8.04688 0.000244141 0)" d="M21.6611 59.3155C23.0689 59.0737 31.1602 59.141 32.5786 59.4764L31.4738 60.4257C31.5162 60.8512 31.6188 60.9896 31.8201 61.3514C28.7503 60.7483 24.8094 61.3653 22.8944 60.6162L22.549 60.173L21.6611 59.3155Z"/><path fill="#31681D" transform="matrix(8.04688 0 0 8.04688 0.000244141 0)" d="M37.1142 52.0946L37.2834 52.1834C37.1121 53.2174 37.2819 53.2121 36.6503 53.8536C34.1083 54.7151 28.099 53.1605 26.1932 55.837C25.9614 55.3584 26.1344 54.8836 26.2537 54.3618C27.767 52.1029 34.2429 53.7188 36.6972 52.851C36.8864 52.7841 37.0112 52.3363 37.1142 52.0946Z"/><path fill="#F2F5F6" transform="matrix(8.04688 0 0 8.04688 0.000244141 0)" d="M44.793 26.2127C44.868 25.2505 44.8259 23.9093 45.4845 23.2827C46.226 23.5736 46.1548 23.7088 46.6721 24.4183C51.487 26.5119 49.8629 30.7639 50.0692 35.347C50.0054 36.5079 49.8658 37.4513 50.3721 38.5132L50.641 38.5135C50.7331 38.1049 50.8815 37.6281 50.8002 37.2313C53.2366 36.7434 52.3212 37.6091 54.0496 37.8579C54.5279 37.9267 56.2453 36.8493 57.5284 36.983C58.4391 37.6171 58.1896 44.2551 57.6584 45.1635L56.8546 45.5341C56.2442 46.1408 55.3366 46.0917 54.4943 46.0896C53.9828 46.087 53.4713 46.0765 52.9601 46.058C53.981 47.7798 56.0693 50.3858 56.16 51.9863C56.0374 54.2707 56.6291 57.5796 55.3045 59.1565C54.398 60.406 54.0684 60.8063 52.4584 61.0165C50.1558 61.3171 47.8094 61.1038 45.4592 61.208C44.6053 63.2741 46.0882 67.8068 44.5998 69.174C43.9335 70.2951 42.7141 71.2015 41.7031 72.0513L41.4416 72.2023C41.0833 72.4605 40.4466 72.9797 40.0479 73.054L40.0716 73.5763L39.3008 73.4871L39.0737 73.1865C39.2012 72.3948 39.0247 68.3531 38.8212 67.5466L38.3672 67.2865C38.8229 64.7122 37.9231 64.3748 37.924 62.1425C38.1804 62.5472 38.083 62.5194 38.4661 62.7127C39.5862 60.9716 38.3491 54.6112 39.7984 50.7296C39.6101 49.3941 39.6197 47.2205 40.2407 45.9781L41.5666 45.0339C42.2042 44.8122 43.2202 44.8855 44.2298 44.5935C44.2141 44.5423 44.1991 44.491 44.1849 44.4394C43.5718 42.1651 43.958 30.7238 44.1541 27.8082C44.1829 27.3796 44.5603 26.6152 44.793 26.2127ZM50.8389 55.8881C51.2508 52.6477 47.2099 53.0508 45.1758 53.117C45.2057 54.3332 45.0157 54.6175 45.6055 55.526C47.0636 56.3195 48.9977 55.6928 50.8389 55.8881Z"/><path fill="#F2F5F6" transform="matrix(8.04688 0 0 8.04688 0.000244141 0)" d="M44.793 26.2127C44.868 25.2505 44.8259 23.9093 45.4845 23.2827C46.226 23.5736 46.1548 23.7088 46.6721 24.4183C51.487 26.5119 49.8629 30.7639 50.0692 35.347C50.0054 36.5079 49.8658 37.4513 50.3721 38.5132L50.641 38.5135C50.7331 38.1049 50.8815 37.6281 50.8002 37.2313C53.2366 36.7434 52.3212 37.6091 54.0496 37.8579C54.5279 37.9267 56.2453 36.8493 57.5284 36.983C58.4391 37.6171 58.1896 44.2551 57.6584 45.1635C57.4028 44.399 57.3289 43.5895 57.2233 42.7887C57.0653 43.2888 57.0493 43.7071 56.6471 43.897C55.303 44.5316 52.4636 44.053 50.9351 43.9532C49.511 44.0175 46.1942 44.2364 44.9971 43.7935L44.7742 43.7417C44.8043 44.8097 44.9541 46.7019 44.6341 47.6455L44.3131 47.8629C42.9114 47.8553 41.4425 47.8232 40.0471 47.8772C39.995 48.894 39.8601 50.4997 39.8779 51.4711L39.7984 50.7296C39.6101 49.3941 39.6197 47.2205 40.2407 45.9781L41.5666 45.0339C42.2042 44.8122 43.2202 44.8855 44.2298 44.5935C44.2141 44.5423 44.1991 44.491 44.1849 44.4394C43.5718 42.1651 43.958 30.7238 44.1541 27.8082C44.1829 27.3796 44.5603 26.6152 44.793 26.2127Z"/><defs><linearGradient id="gradient_1" gradientUnits="userSpaceOnUse" x1="52.660088" y1="39.824615" x2="50.512875" y2="44.855892"><stop offset="0" stop-color="#AFE1DA"/><stop offset="1" stop-color="#CCFDE6"/></linearGradient></defs><path fill="url(#gradient_1)" transform="matrix(8.04688 0 0 8.04688 0.000244141 0)" d="M49.2815 40.3407C51.8896 40.0265 54.5105 39.8303 57.1363 39.7526L57.2233 42.7887C57.0653 43.2888 57.0493 43.7071 56.6471 43.897C55.303 44.5316 52.4636 44.053 50.9351 43.9532C49.511 44.0175 46.1942 44.2364 44.9971 43.7935C44.9256 41.1863 45.1353 41.5891 47.2077 40.1544C47.9187 40.3055 48.5806 40.514 49.2815 40.3407Z"/><path fill="#B6EBD2" transform="matrix(8.04688 0 0 8.04688 0.000244141 0)" d="M44.9971 43.7935C44.9256 41.1863 45.1353 41.5891 47.2077 40.1544C47.1007 41.4838 46.4523 43.4482 46.4546 43.6972C46.8398 43.8216 50.0307 43.3971 50.9351 43.9532C49.511 44.0175 46.1942 44.2364 44.9971 43.7935Z"/><path fill="#246B08" transform="matrix(8.04688 0 0 8.04688 0.000244141 0)" d="M46.6721 24.4183C51.487 26.5119 49.8629 30.7639 50.0692 35.347C50.0054 36.5079 49.8658 37.4513 50.3721 38.5132L50.641 38.5135C50.7331 38.1049 50.8815 37.6281 50.8002 37.2313C53.2366 36.7434 52.3212 37.6091 54.0496 37.8579C54.5279 37.9267 56.2453 36.8493 57.5284 36.983C58.4391 37.6171 58.1896 44.2551 57.6584 45.1635C57.4028 44.399 57.3289 43.5895 57.2233 42.7887L57.1363 39.7526C54.5105 39.8303 51.8896 40.0265 49.2815 40.3407C48.8509 36.9238 49.5596 31.099 49.0265 27.4915C48.8778 26.9529 48.967 27.1265 48.4241 26.7744C47.8127 25.7208 46.8767 25.106 46.6721 24.4183Z"/><path fill="#015400" transform="matrix(8.04688 0 0 8.04688 0.000244141 0)" d="M44.7207 39.966L44.7742 43.7417C44.8043 44.8097 44.9541 46.7019 44.6341 47.6455L44.3131 47.8629C42.9114 47.8553 41.4425 47.8232 40.0471 47.8772C39.995 48.894 39.8601 50.4997 39.8779 51.4711L39.7984 50.7296C39.6101 49.3941 39.6197 47.2205 40.2407 45.9781L41.5666 45.0339C42.2042 44.8122 43.2202 44.8855 44.2298 44.5935C44.1538 43.1562 44.3464 41.3534 44.7207 39.966Z"/><path fill="#ABC8CA" transform="matrix(8.04688 0 0 8.04688 0.000244141 0)" d="M49.0265 27.4915C49.5596 31.099 48.8509 36.9238 49.2815 40.3407C48.5806 40.514 47.9187 40.3055 47.2077 40.1544C45.1353 41.5891 44.9256 41.1863 44.9971 43.7935L44.7742 43.7417L44.7207 39.966C44.7917 38.9335 44.8679 37.9013 44.9495 36.8696C44.9899 37.708 45.025 38.2519 45.1627 39.0817L45.5349 39.2162C48.138 37.2832 49.1211 37.6817 48.9947 34.2347C48.9187 32.1631 48.8844 29.5545 49.0265 27.4915Z"/><path fill="#35772D" transform="matrix(8.04688 0 0 8.04688 0.000244141 0)" d="M44.793 26.2127C44.7716 27.2563 44.6956 28.7672 44.8086 29.766C44.8406 31.6319 44.7865 35.1418 44.9495 36.8696C44.8679 37.9013 44.7917 38.9335 44.7207 39.966C44.3464 41.3534 44.1538 43.1562 44.2298 44.5935C44.2141 44.5423 44.1991 44.491 44.1849 44.4394C43.5718 42.1651 43.958 30.7238 44.1541 27.8082C44.1829 27.3796 44.5603 26.6152 44.793 26.2127Z"/><path fill="#015400" transform="matrix(8.04688 0 0 8.04688 0.000244141 0)" d="M44.793 26.2127C44.868 25.2505 44.8259 23.9093 45.4845 23.2827C46.226 23.5736 46.1548 23.7088 46.6721 24.4183C46.8767 25.106 47.8127 25.7208 48.4241 26.7744C47.5301 26.7626 46.0686 26.6271 45.355 27.0495C44.7791 27.677 44.8517 28.8691 44.8086 29.766C44.6956 28.7672 44.7716 27.2563 44.793 26.2127Z"/><path fill="#ABC8CA" transform="matrix(8.04688 0 0 8.04688 0.000244141 0)" d="M39.7984 50.7296L39.8779 51.4711C39.9045 54.7228 40.0326 58.5958 39.9181 61.7985L40.2291 62.0876C40.8577 62.081 42.9737 60.1437 43.6837 59.5625C44.0918 60.9963 44.2994 60.7533 45.8355 60.786L45.8632 60.9935L45.4592 61.208C44.6053 63.2741 46.0882 67.8068 44.5998 69.174C43.9335 70.2951 42.7141 71.2015 41.7031 72.0513L41.4416 72.2023C41.0833 72.4605 40.4466 72.9797 40.0479 73.054L40.0716 73.5763L39.3008 73.4871L39.0737 73.1865C39.2012 72.3948 39.0247 68.3531 38.8212 67.5466L38.3672 67.2865C38.8229 64.7122 37.9231 64.3748 37.924 62.1425C38.1804 62.5472 38.083 62.5194 38.4661 62.7127C39.5862 60.9716 38.3491 54.6112 39.7984 50.7296Z"/><path fill="#013901" transform="matrix(8.04688 0 0 8.04688 0.000244141 0)" d="M39.7984 50.7296L39.8779 51.4711C39.9045 54.7228 40.0326 58.5958 39.9181 61.7985C39.6888 64.094 39.8527 66.655 39.7233 68.9553C39.6027 70.0012 39.5073 71.7685 39.9366 72.7265L40.0479 73.054L40.0716 73.5763L39.3008 73.4871L39.0737 73.1865C39.2012 72.3948 39.0247 68.3531 38.8212 67.5466L38.3672 67.2865C38.8229 64.7122 37.9231 64.3748 37.924 62.1425C38.1804 62.5472 38.083 62.5194 38.4661 62.7127C39.5862 60.9716 38.3491 54.6112 39.7984 50.7296Z"/><path fill="#06C70C" transform="matrix(8.04688 0 0 8.04688 0.000244141 0)" d="M39.7233 68.9553C41.2504 69.0744 43.2786 69.0304 44.5998 69.174C43.9335 70.2951 42.7141 71.2015 41.7031 72.0513L41.4416 72.2023C41.0833 72.4605 40.4466 72.9797 40.0479 73.054L39.9366 72.7265C39.5073 71.7685 39.6027 70.0012 39.7233 68.9553Z"/><path fill="#07CF0A" transform="matrix(8.04688 0 0 8.04688 0.000244141 0)" d="M39.9366 72.7265C39.9401 72.1418 39.9479 72.0682 40.3054 71.6093C41.0167 71.6597 40.7932 71.6307 41.4416 72.2023C41.0833 72.4605 40.4466 72.9797 40.0479 73.054L39.9366 72.7265Z"/><path fill="#06C70C" transform="matrix(8.04688 0 0 8.04688 0.000244141 0)" d="M50.9351 43.9532C52.4636 44.053 55.303 44.5316 56.6471 43.897C57.0493 43.7071 57.0653 43.2888 57.2233 42.7887C57.3289 43.5895 57.4028 44.399 57.6584 45.1635L56.8546 45.5341C52.3337 45.9429 48.4254 43.8616 45.7959 48.095C45.7138 48.254 45.5738 48.3014 45.3997 48.4145L44.3131 47.8629L44.6341 47.6455C44.9541 46.7019 44.8043 44.8097 44.7742 43.7417L44.9971 43.7935C46.1942 44.2364 49.511 44.0175 50.9351 43.9532Z"/><path fill="#015400" transform="matrix(8.04688 0 0 8.04688 0.000244141 0)" d="M45.7959 48.095C48.4254 43.8616 52.3337 45.9429 56.8546 45.5341C56.2442 46.1408 55.3366 46.0917 54.4943 46.0896C53.9828 46.087 53.4713 46.0765 52.9601 46.058C53.981 47.7798 56.0693 50.3858 56.16 51.9863C55.3402 50.5368 53.8262 49.1209 52.6333 47.96C50.3825 47.7078 48.0397 47.8594 45.7959 48.095Z"/><path fill="#A4B5C7" transform="matrix(8.04688 0 0 8.04688 0.000244141 0)" d="M43.6837 59.5625C44.6578 59.1945 53.909 59.0935 55.3045 59.1565C54.398 60.406 54.0684 60.8063 52.4584 61.0165C50.1558 61.3171 47.8094 61.1038 45.4592 61.208L45.8632 60.9935L45.8355 60.786C44.2994 60.7533 44.0918 60.9963 43.6837 59.5625Z"/><path fill="#F2F5F6" transform="matrix(8.04688 0 0 8.04688 0.000244141 0)" d="M58.1655 49.5048C59.6506 48.7423 60.1738 48.3537 61.111 46.9809L61.0113 48.3698C61.0665 48.3418 61.1217 48.3138 61.1769 48.2857L61.2747 48.2412C62.3894 47.7234 62.6984 47.7598 63.9546 47.757C65.9266 47.7977 68.7096 47.7808 70.5988 48.0303C71.3415 48.6529 72.0709 49.2151 72.6551 49.9921L73.9714 51.5618C74.0384 55.1527 74.0586 58.7443 74.0319 62.3358C74.3859 64.5809 74.0612 66.943 74.3112 69.082C73.3335 69.0686 70.8169 68.9748 69.9609 69.0553L68.9153 68.8908C68.5188 67.1959 68.6154 63.1153 68.9544 61.4132C67.1774 61.3014 65.1561 61.3468 63.3544 61.3506C63.3322 63.0945 63.4491 67.2442 63.1153 68.6589L62.977 69.0997L59.4508 68.9946L59.1695 69.0099L57.8437 69.1554L57.7363 70.0729C56.8536 68.0375 56.7239 60.0499 56.8892 57.6834C56.4392 58.2332 56.1409 58.793 55.8293 59.4261C54.2942 62.5454 48.6604 62.1771 45.7279 62.0518C46.0289 63.9537 46.138 66.7781 46.0002 68.7045C45.4473 69.259 44.4575 70.0653 44.2988 70.7159C45.6152 71.1585 45.5105 70.4498 46.7437 71.2127C47.696 73.2862 46.2667 75.8061 46.4893 77.4227C47.2254 82.7662 46.9524 88.2679 47.1785 93.5462C47.3993 98.7023 40.5027 97.8144 40.291 95.6132C39.7866 90.3682 40.1508 84.335 39.9834 78.9883C39.9411 77.3738 39.9127 75.1568 40.0716 73.5763L40.0479 73.054C40.4466 72.9797 41.0833 72.4605 41.4416 72.2023L41.7031 72.0513C42.7141 71.2015 43.9335 70.2951 44.5998 69.174C46.0882 67.8068 44.6053 63.2741 45.4592 61.208C47.8094 61.1038 50.1558 61.3171 52.4584 61.0165C54.0684 60.8063 54.398 60.406 55.3045 59.1565C56.6291 57.5796 56.0374 54.2707 56.16 51.9863C56.293 52.372 56.1972 52.2332 56.6058 52.4927C57.0977 52.1207 57.8611 50.1828 58.1655 49.5048ZM62.8326 56.0024C64.5944 55.8354 65.5455 55.7977 67.3125 55.8626L68.4981 55.8256L68.8829 55.391C68.6922 53.4547 66.8006 52.9833 65.134 53.0796C63.5625 53.7863 63.473 54.3577 62.8326 56.0024Z"/><path fill="#246B08" transform="matrix(8.04688 0 0 8.04688 0.000244141 0)" d="M58.1655 49.5048C59.6506 48.7423 60.1738 48.3537 61.111 46.9809L61.0113 48.3698C60.1209 49.132 59.4822 49.6954 58.6766 50.5434C57.5424 52.3554 57.9212 57.559 57.9593 59.9364C58.0571 61.0151 57.9195 61.4663 58.4857 62.2414C58.4524 63.1136 58.851 63.1923 58.9675 63.9671C59.1605 65.2522 59.1346 66.5902 59.0798 67.882L59.1695 69.0099L57.8437 69.1554L57.7363 70.0729C56.8536 68.0375 56.7239 60.0499 56.8892 57.6834C56.4392 58.2332 56.1409 58.793 55.8293 59.4261C54.2942 62.5454 48.6604 62.1771 45.7279 62.0518C46.0289 63.9537 46.138 66.7781 46.0002 68.7045C45.4473 69.259 44.4575 70.0653 44.2988 70.7159C45.6152 71.1585 45.5105 70.4498 46.7437 71.2127C47.696 73.2862 46.2667 75.8061 46.4893 77.4227C47.2254 82.7662 46.9524 88.2679 47.1785 93.5462C47.3993 98.7023 40.5027 97.8144 40.291 95.6132C39.7866 90.3682 40.1508 84.335 39.9834 78.9883C39.9411 77.3738 39.9127 75.1568 40.0716 73.5763L40.0479 73.054C40.4466 72.9797 41.0833 72.4605 41.4416 72.2023L41.7031 72.0513C42.7141 71.2015 43.9335 70.2951 44.5998 69.174C46.0882 67.8068 44.6053 63.2741 45.4592 61.208C47.8094 61.1038 50.1558 61.3171 52.4584 61.0165C54.0684 60.8063 54.398 60.406 55.3045 59.1565C56.6291 57.5796 56.0374 54.2707 56.16 51.9863C56.293 52.372 56.1972 52.2332 56.6058 52.4927C57.0977 52.1207 57.8611 50.1828 58.1655 49.5048Z"/><path fill="#F2F5F6" transform="matrix(8.04688 0 0 8.04688 0.000244141 0)" d="M40.7025 75.6637C41.139 74.1647 44.744 74.8501 46.0704 74.9564C46.0953 77.6177 45.9424 82.2078 46.1037 84.6561L45.8583 85.7475C44.5559 86.9596 42.8688 86.5879 41.0741 86.5272C41.0785 85.2823 41.2405 79.7424 40.8252 79.0605L40.7025 75.6637Z"/><path fill="#ABC8CA" transform="matrix(8.04688 0 0 8.04688 0.000244141 0)" d="M40.8252 79.0605C41.2405 79.7424 41.0785 85.2823 41.0741 86.5272C42.8688 86.5879 44.5559 86.9596 45.8583 85.7475L46.1037 84.6561C46.3817 87.4815 46.2266 93.2373 46.2604 96.3321L40.8244 96.2828C40.661 90.7467 40.787 84.6349 40.8252 79.0605Z"/><path fill="#015400" transform="matrix(8.04688 0 0 8.04688 0.000244141 0)" d="M41.4416 72.2023L41.7031 72.0513C43.3526 73.0292 44.7517 71.5784 46.003 73.3467C46.08 73.9517 46.154 74.3413 46.0704 74.9564C44.744 74.8501 41.139 74.1647 40.7025 75.6637L40.0716 73.5763L40.0479 73.054C40.4466 72.9797 41.0833 72.4605 41.4416 72.2023Z"/><path fill="#B0D8CB" transform="matrix(8.04688 0 0 8.04688 0.000244141 0)" d="M57.9593 59.9364C58.0571 61.0151 57.9195 61.4663 58.4857 62.2414C58.4524 63.1136 58.851 63.1923 58.9675 63.9671C59.1605 65.2522 59.1346 66.5902 59.0798 67.882L59.1695 69.0099L57.8437 69.1554C57.6349 66.6538 57.7203 62.4014 57.9593 59.9364Z"/><path fill="#ABC8CA" transform="matrix(8.04688 0 0 8.04688 0.000244141 0)" d="M61.6312 59.8178C63.2836 58.8909 68.8477 58.9547 70.5967 59.5522C71.4949 60.1956 73.4677 62.0501 74.0319 62.3358C74.3859 64.5809 74.0612 66.943 74.3112 69.082C73.3335 69.0686 70.8169 68.9748 69.9609 69.0553L68.9153 68.8908C68.5188 67.1959 68.6154 63.1153 68.9544 61.4132C67.1774 61.3014 65.1561 61.3468 63.3544 61.3506C63.3322 63.0945 63.4491 67.2442 63.1153 68.6589L62.977 69.0997L59.4508 68.9946L59.1695 69.0099L59.0798 67.882C59.1346 66.5902 59.1605 65.2522 58.9675 63.9671C58.851 63.1923 58.4524 63.1136 58.4857 62.2414C59.6642 61.204 60.2761 60.6495 61.6312 59.8178Z"/><path fill="#B7CDD2" transform="matrix(8.04688 0 0 8.04688 0.000244141 0)" d="M59.0798 67.882C59.2801 66.5558 59.6038 63.7457 60.537 62.8219L60.9301 63.0228C61.6306 64.4824 61.3947 65.1729 61.7607 66.6245L61.7884 66.7315C61.5634 67.7322 61.6685 68.0421 61.0423 68.6863L59.4508 68.9946L59.1695 69.0099L59.0798 67.882Z"/><path fill="#A4B5C7" transform="matrix(8.04688 0 0 8.04688 0.000244141 0)" d="M61.6312 59.8178C63.2836 58.8909 68.8477 58.9547 70.5967 59.5522C69.1786 60.7215 64.6694 60.6934 62.7461 60.4958C62.5182 60.4714 62.2922 60.4315 62.0696 60.3766L61.6312 59.8178Z"/><path fill="#B0D8CB" transform="matrix(8.04688 0 0 8.04688 0.000244141 0)" d="M61.7884 66.7315C62.3146 66.3295 62.2248 65.4453 62.6746 64.4392L62.8936 64.5038C63.2855 65.6616 63.1433 67.3961 63.1153 68.6589L62.977 69.0997L59.4508 68.9946L61.0423 68.6863C61.6685 68.0421 61.5634 67.7322 61.7884 66.7315Z"/><path fill="#DDEBEC" transform="matrix(8.04688 0 0 8.04688 0.000244141 0)" d="M63.9546 47.757C65.9266 47.7977 68.7096 47.7808 70.5988 48.0303C71.3415 48.6529 72.0709 49.2151 72.6551 49.9921C69.9154 51.3617 61.4026 51.4179 58.6766 50.5434C59.4822 49.6954 60.1209 49.132 61.0113 48.3698C61.0665 48.3418 61.1217 48.3138 61.1769 48.2857L61.2747 48.2412C62.3894 47.7234 62.6984 47.7598 63.9546 47.757Z"/><path fill="#ABC8CA" transform="matrix(8.04688 0 0 8.04688 0.000244141 0)" d="M59.4508 68.9946L62.977 69.0997C62.5049 69.997 62.7705 69.7245 61.9259 70.2348L61.3668 71.2824L61.4898 71.5924C62.8849 71.0525 63.7722 70.5907 65.341 71.128C67.9085 72.0074 67.5126 78.5144 66.2287 80.065C67.062 81.3337 68.1202 80.5455 68.0229 82.8622C67.8376 87.2711 68.7487 93.2222 67.2026 97.3049C67.0322 98.8237 67.0537 100.218 67.0516 101.742C65.5773 100.105 64.0435 98.5232 62.4532 96.9991C60.0371 96.9888 52.319 97.4459 50.7881 96.3913C46.6659 93.5515 47.7418 83.4506 48.4629 79.1319C48.5727 78.4748 50.4323 75.2357 50.8736 74.4674C50.8558 73.8086 51.0853 71.7735 51.1505 71.0189C53.0224 71.0259 55.3955 71.1506 57.2256 70.8835C57.4757 70.847 57.589 70.5333 57.7676 70.2553L57.7363 70.0729L57.8437 69.1554L59.1695 69.0099L59.4508 68.9946ZM54.0761 85.4422C54.1097 86.066 54.2227 87.4982 54.1857 88.0544C54.7017 89.6485 55.6961 90.1996 57.3848 90.1098C58.1742 90.0678 60.6613 90.0823 61.212 89.7054C60.1294 88.9357 58.1198 89.3786 57.3688 88.0835C56.5609 86.6902 56.8311 85.2462 57.0788 83.748C57.269 82.598 57.7882 82.4814 58.6923 81.8629C59.6719 82.0204 60.0327 82.0798 61.0206 82.0221L61.4279 81.5546L61.3158 81.9518L61.6401 81.7177C60.9425 80.7648 58.326 81.0733 57.2395 81.1204C56.3494 81.0876 55.6027 80.9546 54.8979 81.4766C54.5497 81.9423 54.3154 82.2234 54.0862 82.77L54.0761 85.4422Z"/><path transform="matrix(8.04688 0 0 8.04688 0.000244141 0)" d="M57.2395 81.1204C58.326 81.0733 60.9425 80.7648 61.6401 81.7177L61.3158 81.9518L61.4279 81.5546L61.0206 82.0221C60.0327 82.0798 59.6719 82.0204 58.6923 81.8629C58.1478 81.6301 57.75 81.4065 57.2395 81.1204Z"/><path fill="#F2F5F6" transform="matrix(8.04688 0 0 8.04688 0.000244141 0)" d="M59.4508 68.9946L62.977 69.0997C62.5049 69.997 62.7705 69.7245 61.9259 70.2348L61.3668 71.2824L61.4898 71.5924C62.8849 71.0525 63.7722 70.5907 65.341 71.128C67.9085 72.0074 67.5126 78.5144 66.2287 80.065C62.6861 80.1244 58.9337 79.7169 55.5107 80.3894C54.2725 80.6327 54.1622 81.7279 54.0862 82.77L54.0761 85.4422C53.4243 87.3993 50.8579 88.5192 49.0635 89.1565C49.0549 86.1713 49.0803 83.1242 48.9642 80.1457C48.6881 82.0874 48.6414 90.9878 48.8117 93.0503C49.3027 93.79 49.8334 94.676 50.4855 95.2558C53.8037 96.2915 57.9488 95.9344 61.5348 96.0092L62.4532 96.9991C60.0371 96.9888 52.319 97.4459 50.7881 96.3913C46.6659 93.5515 47.7418 83.4506 48.4629 79.1319C48.5727 78.4748 50.4323 75.2357 50.8736 74.4674C50.8558 73.8086 51.0853 71.7735 51.1505 71.0189C53.0224 71.0259 55.3955 71.1506 57.2256 70.8835C57.4757 70.847 57.589 70.5333 57.7676 70.2553L57.7363 70.0729L57.8437 69.1554L59.1695 69.0099L59.4508 68.9946Z"/><path fill="#015400" transform="matrix(8.04688 0 0 8.04688 0.000244141 0)" d="M59.4508 68.9946L62.977 69.0997C62.5049 69.997 62.7705 69.7245 61.9259 70.2348L61.3668 71.2824L61.4898 71.5924C62.8849 71.0525 63.7722 70.5907 65.341 71.128C67.9085 72.0074 67.5126 78.5144 66.2287 80.065C66.1955 78.5988 66.2006 76.3914 66.0046 75.0023C63.5826 74.7171 54.9034 74.6503 52.4538 75.0071C50.985 76.2326 49.1893 77.5316 48.9967 79.5708C48.979 79.762 48.9682 79.9537 48.9642 80.1457C48.6881 82.0874 48.6414 90.9878 48.8117 93.0503C49.3027 93.79 49.8334 94.676 50.4855 95.2558C53.8037 96.2915 57.9488 95.9344 61.5348 96.0092L62.4532 96.9991C60.0371 96.9888 52.319 97.4459 50.7881 96.3913C46.6659 93.5515 47.7418 83.4506 48.4629 79.1319C48.5727 78.4748 50.4323 75.2357 50.8736 74.4674C50.8558 73.8086 51.0853 71.7735 51.1505 71.0189C53.0224 71.0259 55.3955 71.1506 57.2256 70.8835C57.4757 70.847 57.589 70.5333 57.7676 70.2553L57.7363 70.0729L57.8437 69.1554L59.1695 69.0099L59.4508 68.9946Z"/><path fill="#35772D" transform="matrix(8.04688 0 0 8.04688 0.000244141 0)" d="M57.7676 70.2553C57.9892 71.3462 57.9692 71.989 57.9684 73.1066C56.4994 72.8745 53.406 72.4972 52.0136 72.6515C51.0345 73.4371 51.5466 74.0605 50.8736 74.4674C50.8558 73.8086 51.0853 71.7735 51.1505 71.0189C53.0224 71.0259 55.3955 71.1506 57.2256 70.8835C57.4757 70.847 57.589 70.5333 57.7676 70.2553Z"/><path fill="#07CF0A" transform="matrix(8.04688 0 0 8.04688 0.000244141 0)" d="M59.4508 68.9946L62.977 69.0997C62.5049 69.997 62.7705 69.7245 61.9259 70.2348C60.2813 71.1154 58.8932 73.0372 57.9684 73.1066C57.9692 71.989 57.9892 71.3462 57.7676 70.2553L57.7363 70.0729L57.8437 69.1554L59.1695 69.0099L59.4508 68.9946Z"/><path fill="#246B08" transform="matrix(8.04688 0 0 8.04688 0.000244141 0)" d="M66.2287 80.065C67.062 81.3337 68.1202 80.5455 68.0229 82.8622C67.8376 87.2711 68.7487 93.2222 67.2026 97.3049L67.2469 96.2102C67.2482 93.4781 67.3188 90.3961 67.1148 87.6983L66.8224 88.5532L66.2835 88.6571C65.0117 88.3838 63.457 87.3365 62.5479 86.4289C62.0947 87.877 62.064 88.2235 62.0676 89.7467C62.0292 89.9776 61.9047 90.3685 61.8371 90.6086C60.21 91.4526 56.2487 91.2016 54.7252 90.1853C54.1329 89.5806 54.2152 88.9088 54.1857 88.0544C54.7017 89.6485 55.6961 90.1996 57.3848 90.1098C58.1742 90.0678 60.6613 90.0823 61.212 89.7054C60.1294 88.9357 58.1198 89.3786 57.3688 88.0835C56.5609 86.6902 56.8311 85.2462 57.0788 83.748C57.269 82.598 57.7882 82.4814 58.6923 81.8629C59.6719 82.0204 60.0327 82.0798 61.0206 82.0221L61.4279 81.5546L61.3158 81.9518L61.6401 81.7177C60.9425 80.7648 58.326 81.0733 57.2395 81.1204C56.3494 81.0876 55.6027 80.9546 54.8979 81.4766C54.5497 81.9423 54.3154 82.2234 54.0862 82.77C54.1622 81.7279 54.2725 80.6327 55.5107 80.3894C58.9337 79.7169 62.6861 80.1244 66.2287 80.065Z"/><path fill="#F2F5F6" transform="matrix(8.04688 0 0 8.04688 0.000244141 0)" d="M58.0336 83.0052C61.0109 82.9304 63.9893 82.9083 66.9674 82.9391L67.1148 87.6983L66.8224 88.5532L66.2835 88.6571C65.0117 88.3838 63.457 87.3365 62.5479 86.4289C61.9199 86.2773 58.7289 86.3475 57.8857 86.3342L58.0336 83.0052Z"/><path fill="#ABC8CA" transform="matrix(8.04688 0 0 8.04688 0.000244141 0)" d="M57.8857 86.3342C58.7289 86.3475 61.9199 86.2773 62.5479 86.4289C62.0947 87.877 62.064 88.2235 62.0676 89.7467C61.933 89.0962 61.9084 88.9477 61.5717 88.381C60.2332 87.4888 59.0509 88.707 57.8692 87.5159L57.8857 86.3342Z"/><path fill="#06C70C" transform="matrix(8.04688 0 0 8.04688 0.000244141 0)" d="M61.5348 96.0092L67.2469 96.2102L67.2026 97.3049C67.0322 98.8237 67.0537 100.218 67.0516 101.742C65.5773 100.105 64.0435 98.5232 62.4532 96.9991L61.5348 96.0092Z"/><path fill="#F2F5F6" transform="matrix(8.04688 0 0 8.04688 0.000244141 0)" d="M73.9714 51.5618L74.1621 51.4927C75.7806 56.3883 74.6066 62.3758 75.1359 67.4533C75.755 73.3929 76.7435 76.1996 74.9992 82.1436C76.9806 82.1215 78.9622 82.1155 80.9437 82.1257C80.0061 78.1625 79.9968 75.2047 80.3442 71.1628C80.3514 71.0794 79.7896 70.2043 79.6776 70.0697C81.8923 71.4865 88.0293 70.0643 90.0762 71.0087C89.2753 71.0526 85.7782 71.031 85.4262 71.2481C86.9754 75.0457 85.955 74.4401 86.329 78.3137C86.8274 83.4767 87.7389 89.1941 86.2176 94.3086L85.9643 96.5654C84.3421 96.444 82.7332 96.2566 81.1235 96.4887C80.9308 94.2982 80.9594 91.0287 80.9167 88.7616C79.7538 87.7305 76.7577 88.2272 75.2403 88.3188C75.4172 90.8159 75.3159 93.9922 75.3012 96.5413C73.6329 96.5855 71.838 96.7298 70.235 96.3039C70.0328 96.0189 69.8889 95.8484 69.7808 95.5083C68.2301 90.7075 69.1975 82.8629 69.1643 77.6889C69.14 73.9103 70.8953 72.8666 68.9153 68.8908L69.9609 69.0553C70.8169 68.9748 73.3335 69.0686 74.3112 69.082C74.0612 66.943 74.3859 64.5809 74.0319 62.3358C74.0586 58.7443 74.0384 55.1527 73.9714 51.5618Z"/><path fill="#015400" transform="matrix(8.04688 0 0 8.04688 0.000244141 0)" d="M73.9714 51.5618L74.1621 51.4927C75.7806 56.3883 74.6066 62.3758 75.1359 67.4533C75.755 73.3929 76.7435 76.1996 74.9992 82.1436C76.9806 82.1215 78.9622 82.1155 80.9437 82.1257C80.0061 78.1625 79.9968 75.2047 80.3442 71.1628C80.3514 71.0794 79.7896 70.2043 79.6776 70.0697C81.8923 71.4865 88.0293 70.0643 90.0762 71.0087C89.2753 71.0526 85.7782 71.031 85.4262 71.2481C86.9754 75.0457 85.955 74.4401 86.329 78.3137C86.8274 83.4767 87.7389 89.1941 86.2176 94.3086C86.1228 92.7392 86.22 91.199 86.0994 89.491C85.8714 85.2046 86.0571 79.3323 85.983 74.8776C83.9472 74.7992 82.8806 74.8177 80.8668 75.0405C80.754 77.73 80.897 80.2686 81.0176 82.9506L74.9835 82.9213C75.1721 79.9369 75.1889 77.9434 74.9758 74.9649C72.9969 74.769 71.9823 74.7882 70.0136 74.9473C69.6915 79.0352 70.0365 84.734 69.9118 89.082C69.6807 90.7519 69.7734 93.726 69.7808 95.5083C68.2301 90.7075 69.1975 82.8629 69.1643 77.6889C69.14 73.9103 70.8953 72.8666 68.9153 68.8908L69.9609 69.0553C70.8169 68.9748 73.3335 69.0686 74.3112 69.082C74.0612 66.943 74.3859 64.5809 74.0319 62.3358C74.0586 58.7443 74.0384 55.1527 73.9714 51.5618Z"/><path fill="#06C70C" transform="matrix(8.04688 0 0 8.04688 0.000244141 0)" d="M74.3112 69.082C74.6355 70.0119 74.5559 72.9098 74.5006 74.0006C73.154 72.7639 70.9862 70.5634 69.9609 69.0553C70.8169 68.9748 73.3335 69.0686 74.3112 69.082Z"/><path fill="#ABC8CA" transform="matrix(8.04688 0 0 8.04688 0.000244141 0)" d="M69.9118 89.082C71.8575 88.8287 72.8065 86.8538 74.6292 86.4259C74.8726 86.3688 76.6934 86.4388 77.0581 86.449C76.2427 87.0039 75.4973 87.3741 75.2403 88.3188C75.4172 90.8159 75.3159 93.9922 75.3012 96.5413C73.6329 96.5855 71.838 96.7298 70.235 96.3039C70.0328 96.0189 69.8889 95.8484 69.7808 95.5083C69.7734 93.726 69.6807 90.7519 69.9118 89.082Z"/><path fill="#ABC8CA" transform="matrix(8.04688 0 0 8.04688 0.000244141 0)" d="M80.9167 88.7616C81.1221 87.8948 80.9628 88.1833 81.8152 87.6126C83.5092 87.3438 83.4267 88.2744 84.6645 88.8049L86.0994 89.491C86.22 91.199 86.1228 92.7392 86.2176 94.3086L85.9643 96.5654C84.3421 96.444 82.7332 96.2566 81.1235 96.4887C80.9308 94.2982 80.9594 91.0287 80.9167 88.7616Z"/><path fill="#9ABABF" transform="matrix(8.04688 0 0 8.04688 0.000244141 0)" d="M77.0581 86.449C78.6023 86.1893 80.2248 86.2667 81.794 86.2878C82.8551 86.8922 84.2339 87.5971 84.6645 88.8049C83.4267 88.2744 83.5092 87.3438 81.8152 87.6126C80.9628 88.1833 81.1221 87.8948 80.9167 88.7616C79.7538 87.7305 76.7577 88.2272 75.2403 88.3188C75.4973 87.3741 76.2427 87.0039 77.0581 86.449Z"/><path fill="#F2F5F6" transform="matrix(8.04688 0 0 8.04688 0.000244141 0)" d="M91.3148 67.7828L92.0744 68.4471L95.3266 71.6508C96.7993 72.2962 100.42 72.0292 102.098 71.9772C103.23 71.9413 105.765 71.7928 106.715 71.902C107.407 73.6094 106.765 76.464 106.235 78.1817L106.237 78.3671C106.229 79.5301 106.424 80.0183 105.845 80.8832C104.266 81.6707 102.111 81.0187 100.102 80.925C101.956 84.924 101.997 93.9017 101.049 98.5698L101.025 101.687C100.237 100.872 99.3361 99.8871 98.4593 99.1941C97.1463 98.5716 95.3377 96.934 94.2651 95.9513C93.8542 92.782 94.0882 84.5665 94.1064 81.0576C86.1004 81.1681 87.7521 78.9342 88.2681 71.8679C89.2555 71.9057 89.6575 71.9355 90.6224 71.7396L90.7495 71.4245L90.2807 71.0266L90.6817 70.7578L90.7819 70.4789L91.1848 70.4558C91.1138 69.9312 90.9324 69.5381 90.7371 69.0516C90.9336 68.8302 91.1897 68.099 91.3148 67.7828Z"/><path fill="#015400" transform="matrix(8.04688 0 0 8.04688 0.000244141 0)" d="M91.3148 67.7828L92.0744 68.4471L95.3266 71.6508C96.7993 72.2962 100.42 72.0292 102.098 71.9772C103.23 71.9413 105.765 71.7928 106.715 71.902C107.407 73.6094 106.765 76.464 106.235 78.1817L106.133 75.02C103.574 74.7532 91.6145 74.664 88.81 74.9202C88.8147 76.6398 88.7911 78.4584 88.8503 80.1682C90.8661 80.1455 92.817 80.1231 94.8302 80.0181C94.8612 81.8075 94.9909 84.4115 94.9213 86.1343C94.7961 87.4807 94.4908 95.2886 95.0799 95.9545C95.9209 96.7784 98.0361 98.4667 98.4593 99.1941C97.1463 98.5716 95.3377 96.934 94.2651 95.9513C93.8542 92.782 94.0882 84.5665 94.1064 81.0576C86.1004 81.1681 87.7521 78.9342 88.2681 71.8679C89.2555 71.9057 89.6575 71.9355 90.6224 71.7396L90.7495 71.4245L90.2807 71.0266L90.6817 70.7578L90.7819 70.4789L91.1848 70.4558C91.1138 69.9312 90.9324 69.5381 90.7371 69.0516C90.9336 68.8302 91.1897 68.099 91.3148 67.7828Z"/><path fill="#06C70C" transform="matrix(8.04688 0 0 8.04688 0.000244141 0)" d="M91.3148 67.7828L92.0744 68.4471L95.3266 71.6508C94.1104 72.3848 91.6305 71.8456 90.6817 70.7578L90.7819 70.4789L91.1848 70.4558C91.1138 69.9312 90.9324 69.5381 90.7371 69.0516C90.9336 68.8302 91.1897 68.099 91.3148 67.7828Z"/><path fill="#ABC8CA" transform="matrix(8.04688 0 0 8.04688 0.000244141 0)" d="M100.047 80.1831C101.749 80.1303 103.609 80.5156 105.249 80.1391C106.117 79.9398 106.059 79.1635 106.237 78.3671C106.229 79.5301 106.424 80.0183 105.845 80.8832C104.266 81.6707 102.111 81.0187 100.102 80.925C101.956 84.924 101.997 93.9017 101.049 98.5698L101.025 101.687C100.237 100.872 99.3361 99.8871 98.4593 99.1941C98.0361 98.4667 95.9209 96.7784 95.0799 95.9545C94.4908 95.2886 94.7961 87.4807 94.9213 86.1343C96.9524 86.2923 97.7765 88.304 99.9359 89.5722C99.9185 88.0935 99.9597 86.872 100.043 85.3966L100.047 80.1831Z"/><path fill="#31681D" transform="matrix(8.04688 0 0 8.04688 0.000244141 0)" d="M100.047 80.1831C101.749 80.1303 103.609 80.5156 105.249 80.1391C106.117 79.9398 106.059 79.1635 106.237 78.3671C106.229 79.5301 106.424 80.0183 105.845 80.8832C104.266 81.6707 102.111 81.0187 100.102 80.925C101.956 84.924 101.997 93.9017 101.049 98.5698C100.926 96.538 100.783 94.3334 100.271 92.3689C100.227 90.0688 100.217 87.6838 100.043 85.3966L100.047 80.1831Z"/><path fill="#06C70C" transform="matrix(8.04688 0 0 8.04688 0.000244141 0)" d="M100.271 92.3689C100.783 94.3334 100.926 96.538 101.049 98.5698L101.025 101.687C100.237 100.872 99.3361 99.8871 98.4593 99.1941C98.0361 98.4667 95.9209 96.7784 95.0799 95.9545C96.8208 96.0957 98.4706 96.153 100.216 96.2096L100.271 92.3689Z"/><path fill="#F2F5F6" transform="matrix(8.04688 0 0 8.04688 0.000244141 0)" d="M74.3193 23.1348C77.2927 22.8843 80.6201 22.9937 83.619 23.0471C84.7824 25.5548 85.2735 27.5952 86.9639 29.6788C87.1555 31.3948 87.2371 32.7583 86.9941 34.471C86.5181 32.719 86.4813 33.1808 86.2154 31.177C86.0058 33.5071 86.0547 34.1832 84.7754 36.185C85.2199 36.9992 86.1492 37.4848 86.9428 37.9866C87.1042 39.8989 87.1769 41.2307 87.1492 43.1457L87.2382 44.0528C87.3732 45.0442 87.5011 46.0365 87.6218 47.0297L87.1912 47.2C86.2885 47.1679 85.7512 46.3103 84.6749 45.6854C83.3853 47.116 82.5586 45.9867 80.837 46.2088L81.2117 44.802C83.8224 43.7904 80.2278 37.5372 77.4352 39.2926C76.8108 40.7074 78.1182 43.663 76.6221 44.7897C75.8604 45.7719 74.6638 47.0328 73.3902 47.0104C72.7304 46.2942 72.9226 46.2909 72.7708 45.1305C71.3521 41.4032 71.9868 31.7064 72.2942 27.4555C72.3241 27.0425 73.9907 23.7851 74.3193 23.1348ZM81.1587 33.417C81.79 32.5941 81.8324 32.7777 81.9485 31.8423C81.0484 30.9128 78.576 31.2498 77.2811 31.2856C77.2903 32.4511 77.102 32.8722 77.6606 33.7523C78.7822 34.2263 80.0496 33.9121 81.1587 33.417Z"/><path fill="#246B08" transform="matrix(8.04688 0 0 8.04688 0.000244141 0)" d="M74.3193 23.1348C77.2927 22.8843 80.6201 22.9937 83.619 23.0471C84.7824 25.5548 85.2735 27.5952 86.9639 29.6788C87.1555 31.3948 87.2371 32.7583 86.9941 34.471C86.5181 32.719 86.4813 33.1808 86.2154 31.177C85.9445 29.1909 85.5055 28.8188 84.2229 27.3088C83.346 26.849 80.8463 26.8553 79.7634 26.8096L73.3388 26.8322C72.7306 27.7444 72.9154 31.0058 72.9542 32.195C72.727 35.6847 72.81 40.0154 72.7934 43.5728L72.7708 45.1305C71.3521 41.4032 71.9868 31.7064 72.2942 27.4555C72.3241 27.0425 73.9907 23.7851 74.3193 23.1348Z"/><path fill="#015400" transform="matrix(8.04688 0 0 8.04688 0.000244141 0)" d="M73.3388 26.8322C73.4593 26.4062 73.6564 25.6923 73.9303 25.3691C75.1712 23.9048 77.5099 25.0243 79.02 25.2496C79.5201 25.3243 80.8159 25.1964 81.34 25.1438C82.0473 24.8647 82.3812 24.6716 83.1181 24.9322C83.8636 25.429 84.2356 26.4384 84.2229 27.3088C83.346 26.849 80.8463 26.8553 79.7634 26.8096L73.3388 26.8322Z"/><path fill="#B6EBD2" transform="matrix(8.04688 0 0 8.04688 0.000244141 0)" d="M81.7802 37.8928C82.8968 36.6772 84.024 37.306 84.7754 36.185C85.2199 36.9992 86.1492 37.4848 86.9428 37.9866C87.1042 39.8989 87.1769 41.2307 87.1492 43.1457L87.2382 44.0528C87.3732 45.0442 87.5011 46.0365 87.6218 47.0297L87.1912 47.2C86.2885 47.1679 85.7512 46.3103 84.6749 45.6854C83.3853 47.116 82.5586 45.9867 80.837 46.2088L81.2117 44.802C83.8224 43.7904 80.2278 37.5372 77.4352 39.2926C76.8108 40.7074 78.1182 43.663 76.6221 44.7897C76.6205 44.6046 76.7743 44.2444 76.8444 44.0533C76.9566 43.573 77.0502 39.6118 77.1075 38.6812L77.375 38.105L78.8227 38.1688L79.3841 37.5846L80.5903 38.7303C81.0276 38.4988 81.3908 38.1962 81.7802 37.8928Z"/><path fill="#013901" transform="matrix(8.04688 0 0 8.04688 0.000244141 0)" d="M79.3841 37.5846L80.5903 38.7303C81.8012 39.3158 82.0361 39.8063 82.8727 40.8545C82.8771 41.8558 82.8099 43.133 83.1444 44.0488L84.6749 45.6854C83.3853 47.116 82.5586 45.9867 80.837 46.2088L81.2117 44.802C83.8224 43.7904 80.2278 37.5372 77.4352 39.2926C76.8108 40.7074 78.1182 43.663 76.6221 44.7897C76.6205 44.6046 76.7743 44.2444 76.8444 44.0533C76.9566 43.573 77.0502 39.6118 77.1075 38.6812L77.375 38.105L78.8227 38.1688L79.3841 37.5846Z"/><path fill="#ABC8CA" transform="matrix(8.04688 0 0 8.04688 0.000244141 0)" d="M81.7802 37.8928C82.8968 36.6772 84.024 37.306 84.7754 36.185C85.2199 36.9992 86.1492 37.4848 86.9428 37.9866C87.1042 39.8989 87.1769 41.2307 87.1492 43.1457C87.0384 42.7246 86.9236 41.8724 86.846 41.4095C83.1468 40.4234 84.3248 39.0009 81.7802 37.8928Z"/><path fill="#07CF0A" transform="matrix(8.04688 0 0 8.04688 0.000244141 0)" d="M87.2382 44.0528C87.3732 45.0442 87.5011 46.0365 87.6218 47.0297L87.1912 47.2C86.2885 47.1679 85.7512 46.3103 84.6749 45.6854L83.1444 44.0488C84.3421 43.9252 85.9637 44.0654 87.2382 44.0528Z"/><path fill="#B6EBD2" transform="matrix(8.04688 0 0 8.04688 0.000244141 0)" d="M72.9542 32.195C73.1221 34.1157 72.7325 38.2539 73.4759 39.3277L74.1299 39.3959C75.2344 37.3352 76.7354 37.2876 78.9167 37.5621L79.086 37.2592L79.3841 37.5846L78.8227 38.1688L77.375 38.105L77.1075 38.6812C77.0502 39.6118 76.9566 43.573 76.8444 44.0533C76.7743 44.2444 76.6205 44.6046 76.6221 44.7897C75.8604 45.7719 74.6638 47.0328 73.3902 47.0104C72.7304 46.2942 72.9226 46.2909 72.7708 45.1305L72.7934 43.5728C72.81 40.0154 72.727 35.6847 72.9542 32.195Z"/><path fill="#06C70C" transform="matrix(8.04688 0 0 8.04688 0.000244141 0)" d="M72.7934 43.5728C73.7251 44.3164 75.5749 44.0917 76.8444 44.0533C76.7743 44.2444 76.6205 44.6046 76.6221 44.7897C75.8604 45.7719 74.6638 47.0328 73.3902 47.0104C72.7304 46.2942 72.9226 46.2909 72.7708 45.1305L72.7934 43.5728Z"/><path fill="#9ABABF" transform="matrix(8.04688 0 0 8.04688 0.000244141 0)" d="M74.1299 39.3959C75.2344 37.3352 76.7354 37.2876 78.9167 37.5621L79.086 37.2592L79.3841 37.5846L78.8227 38.1688L77.375 38.105L77.1075 38.6812L76.8143 38.1638C75.9218 38.427 75.2051 40.0722 74.7054 40.989L74.6267 41.1336L74.3976 41.1995L74.1299 39.3959Z"/><path transform="matrix(8.04688 0 0 8.04688 0.000244141 0)" d="M77.2811 31.2856C78.576 31.2498 81.0484 30.9128 81.9485 31.8423C81.8324 32.7777 81.79 32.5941 81.1587 33.417C80.0496 33.9121 78.7822 34.2263 77.6606 33.7523C77.102 32.8722 77.2903 32.4511 77.2811 31.2856Z"/><path fill="#F2F5F6" transform="matrix(8.04688 0 0 8.04688 0.000244141 0)" d="M81.2117 44.802L80.837 46.2088C82.5586 45.9867 83.3853 47.116 84.6749 45.6854C85.7512 46.3103 86.2885 47.1679 87.1912 47.2L87.6218 47.0297L88.0735 47.7834L89.8157 47.8787C90.2373 47.9235 90.7514 47.9931 91.1649 48.018L91.066 47.5002C91.2625 46.7641 91.6796 46.5401 92.2822 46.087C91.9514 48.076 92.0091 51.9239 91.9821 54.0706C88.1726 54.0898 87.5054 54.114 83.9435 53.0228C83.0047 53.195 83.3205 53.0282 82.6476 53.6683C82.3136 54.6141 82.3016 54.9413 82.2322 55.9453C82.2728 57.6306 82.2821 59.3166 82.26 61.0022C83.5343 60.9692 85.471 60.8035 86.6201 61.2071C87.4065 61.9726 87.0641 62.559 87.6503 62.5832C88.3875 61.4112 89.2564 59.3462 90.7749 59.9953C91.7252 61.5217 90.8356 63.0378 91.3633 64.3978C91.0996 65.7478 91.0794 66.4117 91.3148 67.7828C91.1897 68.099 90.9336 68.8302 90.7371 69.0516C90.9324 69.5381 91.1138 69.9312 91.1848 70.4558L90.7819 70.4789L90.6817 70.7578L90.2807 71.0266L90.0762 71.0087C88.0293 70.0643 81.8923 71.4865 79.6776 70.0697L78.6971 69.2029C77.5393 68.2218 77.0235 67.6673 76.0287 66.554C75.9128 61.5879 75.9067 56.6198 76.0103 51.6534C77.081 50.1415 78.9346 48.8288 79.8046 47.0489C80.2818 46.0725 80.2503 45.4326 81.2117 44.802Z"/><path fill="#ABC8CA" transform="matrix(8.04688 0 0 8.04688 0.000244141 0)" d="M82.2322 55.9453C82.2728 57.6306 82.2821 59.3166 82.26 61.0022C83.5343 60.9692 85.471 60.8035 86.6201 61.2071C87.4065 61.9726 87.0641 62.559 87.6503 62.5832C88.3875 61.4112 89.2564 59.3462 90.7749 59.9953C91.7252 61.5217 90.8356 63.0378 91.3633 64.3978C91.0996 65.7478 91.0794 66.4117 91.3148 67.7828C91.1897 68.099 90.9336 68.8302 90.7371 69.0516C90.9324 69.5381 91.1138 69.9312 91.1848 70.4558L90.7819 70.4789L90.6817 70.7578L90.2807 71.0266L90.0762 71.0087C88.0293 70.0643 81.8923 71.4865 79.6776 70.0697L78.6971 69.2029L77.7639 67.0386L77.3426 66.6047C77.9075 66.6283 78.7636 66.61 79.2536 66.8304C79.6848 66.0716 79.9649 65.1355 80.248 64.2998C80.4676 64.4081 81.6312 65.0407 81.7549 65.0594L81.7681 64.786C82.4698 64.079 82.348 64.3859 82.5271 63.4819C82.0561 62.3582 82.0348 59.5755 81.9761 58.2419C81.9997 57.5042 82.1333 56.6828 82.2322 55.9453Z"/><path fill="#06C70C" transform="matrix(8.04688 0 0 8.04688 0.000244141 0)" d="M79.2536 66.8304C81.8291 67.6632 80.8916 65.4376 84.5118 65.9603C83.4831 66.0881 83.2083 65.9501 82.495 66.5158C82.8746 67.4358 84.3134 68.4891 85.176 68.8543L85.5718 68.7629C86.9092 69.1132 89.2711 69.0436 90.7371 69.0516C90.9324 69.5381 91.1138 69.9312 91.1848 70.4558L90.7819 70.4789L90.6817 70.7578L90.2807 71.0266L90.0762 71.0087C88.0293 70.0643 81.8923 71.4865 79.6776 70.0697L78.6971 69.2029L77.7639 67.0386L77.3426 66.6047C77.9075 66.6283 78.7636 66.61 79.2536 66.8304Z"/><path fill="#B7CDD2" transform="matrix(8.04688 0 0 8.04688 0.000244141 0)" d="M79.2536 66.8304C81.8291 67.6632 80.8916 65.4376 84.5118 65.9603C83.4831 66.0881 83.2083 65.9501 82.495 66.5158C82.8746 67.4358 84.3134 68.4891 85.176 68.8543C84.0611 68.9995 81.7727 68.9849 80.5636 69.0051C79.436 68.3483 78.7778 67.8308 77.7639 67.0386L77.3426 66.6047C77.9075 66.6283 78.7636 66.61 79.2536 66.8304Z"/><path fill="#31681D" transform="matrix(8.04688 0 0 8.04688 0.000244141 0)" d="M82.2322 55.9453C82.2728 57.6306 82.2821 59.3166 82.26 61.0022C83.5343 60.9692 85.471 60.8035 86.6201 61.2071C87.4065 61.9726 87.0641 62.559 87.6503 62.5832C88.3875 61.4112 89.2564 59.3462 90.7749 59.9953C91.7252 61.5217 90.8356 63.0378 91.3633 64.3978C89.5461 63.0759 85.5552 64.7596 82.5271 63.4819C82.0561 62.3582 82.0348 59.5755 81.9761 58.2419C81.9997 57.5042 82.1333 56.6828 82.2322 55.9453Z"/><path fill="#DDEBEC" transform="matrix(8.04688 0 0 8.04688 0.000244141 0)" d="M88.3208 65.942L88.9867 66.0209C89.4198 66.5831 89.5989 67.9014 89.3385 68.5635C88.0477 68.9614 86.7641 68.6278 85.5718 68.7629L85.176 68.8543C84.3134 68.4891 82.8746 67.4358 82.495 66.5158C83.2083 65.9501 83.4831 66.0881 84.5118 65.9603L88.3208 65.942Z"/><defs><linearGradient id="gradient_2" gradientUnits="userSpaceOnUse" x1="82.231148" y1="63.918381" x2="83.308434" y2="66.484772"><stop offset="0" stop-color="#A1C1BD"/><stop offset="1" stop-color="#A5B8C9"/></linearGradient></defs><path fill="url(#gradient_2)" transform="matrix(8.04688 0 0 8.04688 0.000244141 0)" d="M80.248 64.2998C80.4676 64.4081 81.6312 65.0407 81.7549 65.0594C84.0306 65.1026 86.0022 65.1037 88.2671 65.454L88.5131 65.7196L88.3208 65.942L84.5118 65.9603C80.8916 65.4376 81.8291 67.6632 79.2536 66.8304C79.6848 66.0716 79.9649 65.1355 80.248 64.2998Z"/><path fill="#31681D" transform="matrix(8.04688 0 0 8.04688 0.000244141 0)" d="M81.2117 44.802L80.837 46.2088C80.3135 47.0882 80.2089 47.2808 80.0403 48.2906C78.5702 49.7113 76.9983 50.82 76.9548 52.9048C76.9502 53.1739 76.9529 53.443 76.963 53.7118C77.1257 55.4499 76.7903 61.6983 77.3716 62.4914L77.9942 62.7024L78.3348 64.0595C79.3091 64.5505 79.1304 63.8749 80.248 64.2998C79.9649 65.1355 79.6848 66.0716 79.2536 66.8304C78.7636 66.61 77.9075 66.6283 77.3426 66.6047L77.7639 67.0386L78.6971 69.2029C77.5393 68.2218 77.0235 67.6673 76.0287 66.554C75.9128 61.5879 75.9067 56.6198 76.0103 51.6534C77.081 50.1415 78.9346 48.8288 79.8046 47.0489C80.2818 46.0725 80.2503 45.4326 81.2117 44.802Z"/><path fill="#B7CDD2" transform="matrix(8.04688 0 0 8.04688 0.000244141 0)" d="M76.963 53.7118C77.1257 55.4499 76.7903 61.6983 77.3716 62.4914L77.9942 62.7024L78.3348 64.0595C79.3091 64.5505 79.1304 63.8749 80.248 64.2998C79.9649 65.1355 79.6848 66.0716 79.2536 66.8304C78.7636 66.61 77.9075 66.6283 77.3426 66.6047C76.3455 65.5483 76.7947 55.5872 76.963 53.7118Z"/><path fill="#B7CDD2" transform="matrix(8.04688 0 0 8.04688 0.000244141 0)" d="M81.9761 58.2419C82.0348 59.5755 82.0561 62.3582 82.5271 63.4819C82.348 64.3859 82.4698 64.079 81.7681 64.786L81.7549 65.0594C81.6312 65.0407 80.4676 64.4081 80.248 64.2998C79.1304 63.8749 79.3091 64.5505 78.3348 64.0595L77.9942 62.7024L79.2906 61.388C80.1596 60.5664 81.7202 59.323 81.9761 58.2419Z"/><path fill="#9ABABF" transform="matrix(8.04688 0 0 8.04688 0.000244141 0)" d="M79.2906 61.388C80.1197 62.3512 81.1468 64.1216 81.7681 64.786L81.7549 65.0594C81.6312 65.0407 80.4676 64.4081 80.248 64.2998C79.1304 63.8749 79.3091 64.5505 78.3348 64.0595L77.9942 62.7024L79.2906 61.388Z"/><path fill="#31681D" transform="matrix(8.04688 0 0 8.04688 0.000244141 0)" d="M91.1649 48.018L91.066 47.5002C91.2625 46.7641 91.6796 46.5401 92.2822 46.087C91.9514 48.076 92.0091 51.9239 91.9821 54.0706C88.1726 54.0898 87.5054 54.114 83.9435 53.0228L91.0014 53.0411C91.105 51.2898 91.1722 49.7715 91.1649 48.018Z"/><path fill="#015400" transform="matrix(8.04688 0 0 8.04688 0.000244141 0)" d="M84.6749 45.6854C85.7512 46.3103 86.2885 47.1679 87.1912 47.2L87.6218 47.0297L88.0735 47.7834C86.188 47.8168 81.6435 47.7284 80.0403 48.2906C80.2089 47.2808 80.3135 47.0882 80.837 46.2088C82.5586 45.9867 83.3853 47.116 84.6749 45.6854Z"/><path fill="#F2F5F6" transform="matrix(8.04688 0 0 8.04688 0.000244141 0)" d="M30.4037 70.6888L35.3322 70.7907L34.037 71.1208C32.4802 71.0458 27.6419 70.6293 26.5703 71.4293C27.3224 72.3189 32.6844 72.0195 33.9814 71.9963C36.4899 71.9016 37.3062 71.5621 39.0737 73.1865L39.3008 73.4871C39.2207 73.7878 37.8737 79.3175 38.0726 78.9977L38.0779 80.2351L38.0608 80.7193C37.0119 81.4012 31.0615 80.2667 29.0882 81.5848C29.8287 82.5569 31.6923 82.4871 32.8742 82.6904L33.0363 82.9221L33.0947 86.7039C33.0533 87.521 33.1839 87.6965 32.7407 88.2602C30.9865 88.3917 29.098 88.3761 27.3281 88.3912L27.3322 96.1538L25.7587 96.0489L25.3911 96.0238C24.3499 96.2483 22.9024 96.1043 21.8082 96.045L21.6906 96.8753C20.692 93.8661 21.0296 82.1394 21.1599 78.5116C22.5214 76.7321 25.6793 73.8496 24.9699 71.5941C24.3154 70.8476 24.4783 71.0562 23.3207 70.8811C24.1919 70.5763 29.1807 70.6827 30.4037 70.6888Z"/><path fill="#015400" transform="matrix(8.04688 0 0 8.04688 0.000244141 0)" d="M30.4037 70.6888L35.3322 70.7907L34.037 71.1208C32.4802 71.0458 27.6419 70.6293 26.5703 71.4293C27.3224 72.3189 32.6844 72.0195 33.9814 71.9963C36.4899 71.9016 37.3062 71.5621 39.0737 73.1865L39.3008 73.4871C39.2207 73.7878 37.8737 79.3175 38.0726 78.9977C38.06 77.6631 38.0794 76.3284 38.1307 74.9947C34.8002 74.6908 26.4524 73.9735 24.0198 76.1996C23.3765 76.7884 22.5632 77.8134 22.0078 78.5464C21.9564 82.059 21.9282 85.572 21.9233 89.085L22.5144 89.0647C22.7528 89.6805 23.3546 91.5876 23.6396 92.073C23.5945 93.3808 23.2019 94.8735 23.5694 95.7262C24.2183 95.9716 24.7098 95.9745 25.3911 96.0238C24.3499 96.2483 22.9024 96.1043 21.8082 96.045L21.6906 96.8753C20.692 93.8661 21.0296 82.1394 21.1599 78.5116C22.5214 76.7321 25.6793 73.8496 24.9699 71.5941C24.3154 70.8476 24.4783 71.0562 23.3207 70.8811C24.1919 70.5763 29.1807 70.6827 30.4037 70.6888Z"/><path fill="#B0D8CB" transform="matrix(8.04688 0 0 8.04688 0.000244141 0)" d="M21.9233 89.085L22.5144 89.0647C22.7528 89.6805 23.3546 91.5876 23.6396 92.073C23.5945 93.3808 23.2019 94.8735 23.5694 95.7262C24.2183 95.9716 24.7098 95.9745 25.3911 96.0238C24.3499 96.2483 22.9024 96.1043 21.8082 96.045C21.7979 94.1163 21.6763 90.8507 21.9233 89.085Z"/><path fill="#B0D8CB" transform="matrix(8.04688 0 0 8.04688 0.000244141 0)" d="M26.4136 87.7625C27.4492 87.5827 32.0425 87.6977 32.7407 88.2602C30.9865 88.3917 29.098 88.3761 27.3281 88.3912L27.3322 96.1538L25.7587 96.0489L25.3911 96.0238C24.7098 95.9745 24.2183 95.9716 23.5694 95.7262C23.2019 94.8735 23.5945 93.3808 23.6396 92.073C24.0163 90.5966 23.8828 90.1386 25.3551 89.6362L25.4916 89.4888L25.4564 88.9689C25.7967 88.3589 25.9039 88.2418 26.4136 87.7625Z"/><path fill="#B7CDD2" transform="matrix(8.04688 0 0 8.04688 0.000244141 0)" d="M23.6396 92.073C24.0163 90.5966 23.8828 90.1386 25.3551 89.6362C25.3789 91.1607 25.417 94.7208 25.7587 96.0489L25.3911 96.0238C24.7098 95.9745 24.2183 95.9716 23.5694 95.7262C23.2019 94.8735 23.5945 93.3808 23.6396 92.073Z"/><path fill="#31681D" transform="matrix(8.04688 0 0 8.04688 0.000244141 0)" d="M38.0779 80.2351L38.0608 80.7193C37.0119 81.4012 31.0615 80.2667 29.0882 81.5848C29.8287 82.5569 31.6923 82.4871 32.8742 82.6904L33.0363 82.9221C31.7806 83.0714 27.634 83.2728 27.0816 82.0462C27.4488 81.2334 27.5541 81.0943 28.1773 80.4627C30.1495 79.7569 35.7653 80.1591 38.0779 80.2351Z"/><path fill="#A4B5C7" transform="matrix(8.04688 0 0 8.04688 0.000244141 0)" d="M26.7908 86.511C29.9853 86.3639 30.0062 86.2949 33.0947 86.7039C33.0533 87.521 33.1839 87.6965 32.7407 88.2602C32.0425 87.6977 27.4492 87.5827 26.4136 87.7625C26.7515 87.2317 26.8311 87.1276 26.7908 86.511Z"/><path fill="#9ABABF" transform="matrix(8.04688 0 0 8.04688 0.000244141 0)" d="M22.5144 89.0647C24.5605 88.2445 24.9875 87.6925 26.7908 86.511C26.8311 87.1276 26.7515 87.2317 26.4136 87.7625C25.9039 88.2418 25.7967 88.3589 25.4564 88.9689L25.4916 89.4888L25.3551 89.6362C23.8828 90.1386 24.0163 90.5966 23.6396 92.073C23.3546 91.5876 22.7528 89.6805 22.5144 89.0647Z"/><path fill="#F2F5F6" transform="matrix(8.04688 0 0 8.04688 0.000244141 0)" d="M93.5027 23.1067C95.784 22.9735 97.2887 22.9886 99.5762 23.0942L100.844 25.5711L100.655 25.8094C100.649 26.0001 100.61 26.9241 100.632 27.0478C101.786 28.019 102.058 28.321 102.946 29.5445C102.976 30.1798 103.096 31.8743 103.044 32.423C103.256 34.928 103.009 37.9113 103.245 40.0958L103.195 41.6538C103.079 42.8848 103.258 43.1332 102.586 43.9982C101.633 44.3875 100.357 43.9207 99.0688 43.9862C98.9111 41.9244 98.8373 40.7285 98.9599 38.6762C98.4453 37.1129 95.6951 37.7706 94.235 37.9008C94.1998 38.841 94.1759 40.9532 94.0333 41.795C94.0087 42.6383 94.0495 43.5822 93.7326 44.347L93.7198 44.8502C93.4653 45.0815 92.5191 45.9795 92.2822 46.087C91.6796 46.5401 91.2625 46.7641 91.066 47.5002L91.1649 48.018C90.7514 47.9931 90.2373 47.9235 89.8157 47.8787L88.0735 47.7834L87.6218 47.0297C87.5011 46.0365 87.3732 45.0442 87.2382 44.0528L87.1492 43.1457C87.1769 41.2307 87.1042 39.8989 86.9428 37.9866C86.1492 37.4848 85.2199 36.9992 84.7754 36.185C86.0547 34.1832 86.0058 33.5071 86.2154 31.177C86.4813 33.1808 86.5181 32.719 86.9941 34.471C86.3905 35.4937 86.2877 35.3292 86.2742 36.3774C86.8282 37.4394 87.2409 37.586 87.9761 38.4745C88.0013 40.8249 88.0015 42.1377 88.4168 44.43L88.5332 44.3979C89.2137 41.7493 89.0026 38.1357 88.9344 35.3443C88.9494 33.39 89.0215 31.4366 89.1507 29.4865C89.8435 28.5541 91.6703 26.7926 92.5646 25.8897L92.6825 25.7418C92.9608 24.865 93.2342 23.9866 93.5027 23.1067ZM98.2088 33.797L98.7211 33.7827C99.174 31.6757 96.9817 31.0142 95.2017 31.3364C94.7482 31.9847 94.2477 32.5536 94.1959 33.3332C94.89 34.3213 97.0219 33.8113 98.2088 33.797Z"/><path fill="#013901" transform="matrix(8.04688 0 0 8.04688 0.000244141 0)" d="M92.5646 25.8897L92.592 26.98C91.3523 27.8574 90.934 28.3015 90.0492 29.5479C89.8394 32.819 89.8974 36.1122 89.9123 39.3908C89.8466 40.4061 89.7783 41.3161 89.8177 42.338C89.9405 43.4001 89.7589 43.3222 90.395 43.9578C91.9886 44.2416 92.3348 43.7037 93.7326 44.347L93.7198 44.8502C93.4653 45.0815 92.5191 45.9795 92.2822 46.087C91.6796 46.5401 91.2625 46.7641 91.066 47.5002L91.1649 48.018C90.7514 47.9931 90.2373 47.9235 89.8157 47.8787L88.0735 47.7834L87.6218 47.0297C87.5011 46.0365 87.3732 45.0442 87.2382 44.0528L87.1492 43.1457C87.1769 41.2307 87.1042 39.8989 86.9428 37.9866C86.1492 37.4848 85.2199 36.9992 84.7754 36.185C86.0547 34.1832 86.0058 33.5071 86.2154 31.177C86.4813 33.1808 86.5181 32.719 86.9941 34.471C86.3905 35.4937 86.2877 35.3292 86.2742 36.3774C86.8282 37.4394 87.2409 37.586 87.9761 38.4745C88.0013 40.8249 88.0015 42.1377 88.4168 44.43L88.5332 44.3979C89.2137 41.7493 89.0026 38.1357 88.9344 35.3443C88.9494 33.39 89.0215 31.4366 89.1507 29.4865C89.8435 28.5541 91.6703 26.7926 92.5646 25.8897Z"/><path fill="#07CF0A" transform="matrix(8.04688 0 0 8.04688 0.000244141 0)" d="M89.8177 42.338C89.9405 43.4001 89.7589 43.3222 90.395 43.9578C91.9886 44.2416 92.3348 43.7037 93.7326 44.347L93.7198 44.8502C93.4653 45.0815 92.5191 45.9795 92.2822 46.087C91.6796 46.5401 91.2625 46.7641 91.066 47.5002L91.1649 48.018C90.7514 47.9931 90.2373 47.9235 89.8157 47.8787C89.5449 45.8815 89.7023 44.3495 89.8177 42.338Z"/><path fill="#015400" transform="matrix(8.04688 0 0 8.04688 0.000244141 0)" d="M93.5027 23.1067C95.784 22.9735 97.2887 22.9886 99.5762 23.0942L100.844 25.5711L100.655 25.8094C100.649 26.0001 100.61 26.9241 100.632 27.0478C97.7888 26.7046 95.4309 26.769 92.592 26.98L92.5646 25.8897L92.6825 25.7418C92.9608 24.865 93.2342 23.9866 93.5027 23.1067Z"/><path fill="#35772D" transform="matrix(8.04688 0 0 8.04688 0.000244141 0)" d="M93.5027 23.1067C95.784 22.9735 97.2887 22.9886 99.5762 23.0942L100.844 25.5711L100.655 25.8094C99.2283 24.1609 96.5335 24.483 94.5452 24.6465C93.8808 24.7012 93.1915 25.32 92.6825 25.7418C92.9608 24.865 93.2342 23.9866 93.5027 23.1067Z"/><path fill="#B6EBD2" transform="matrix(8.04688 0 0 8.04688 0.000244141 0)" d="M103.044 32.423C103.256 34.928 103.009 37.9113 103.245 40.0958L103.195 41.6538C103.079 42.8848 103.258 43.1332 102.586 43.9982C101.633 44.3875 100.357 43.9207 99.0688 43.9862C98.9111 41.9244 98.8373 40.7285 98.9599 38.6762C100.251 39.2645 100.556 40.7931 101.566 40.995C102.048 40.587 102.087 39.9085 102.209 39.2706C102.442 39.2389 102.617 39.0891 102.813 38.9546C103.109 37.1693 102.88 34.5226 103.044 32.423Z"/><path fill="#B6EBD2" transform="matrix(8.04688 0 0 8.04688 0.000244141 0)" d="M91.0337 39.438L91.4429 40.3455L91.8403 40.4717C92.6812 39.7811 93.2299 38.2686 93.7436 38.264C93.9034 39.5643 93.9775 40.4876 94.0333 41.795C94.0087 42.6383 94.0495 43.5822 93.7326 44.347C92.3348 43.7037 91.9886 44.2416 90.395 43.9578C89.7589 43.3222 89.9405 43.4001 89.8177 42.338C89.7783 41.3161 89.8466 40.4061 89.9123 39.3908L91.0337 39.438Z"/><path fill="#9ABABF" transform="matrix(8.04688 0 0 8.04688 0.000244141 0)" d="M91.0337 39.438C91.2761 39.1017 92.0927 37.9614 92.3942 37.8572C94.5564 37.1097 98.435 37.4738 100.608 37.4841C101.086 38.0093 101.784 38.733 102.209 39.2706C102.087 39.9085 102.048 40.587 101.566 40.995C100.556 40.7931 100.251 39.2645 98.9599 38.6762C98.4453 37.1129 95.6951 37.7706 94.235 37.9008C94.1998 38.841 94.1759 40.9532 94.0333 41.795C93.9775 40.4876 93.9034 39.5643 93.7436 38.264C93.2299 38.2686 92.6812 39.7811 91.8403 40.4717L91.4429 40.3455L91.0337 39.438Z"/><path fill="#246B08" transform="matrix(8.04688 0 0 8.04688 0.000244141 0)" d="M56.2709 23.0235C60.5764 22.9947 65.6986 22.8674 69.9422 23.0661C71.8831 28.0883 71.1341 28.6655 69.8033 33.3233C68.7762 32.8386 67.5442 32.1429 66.4354 32.1293C66.2247 32.22 65.735 32.3683 65.7562 32.5335C66.0303 34.6605 65.7649 42.7407 66.2669 44.3448C67.7387 45.0356 70.93 41.682 71.2835 46.5638C71.9754 47.7413 74.0295 50.5603 74.1621 51.4927L73.9714 51.5618L72.6551 49.9921C72.0709 49.2151 71.3415 48.6529 70.5988 48.0303C68.7096 47.7808 65.9266 47.7977 63.9546 47.757C62.6984 47.7598 62.3894 47.7234 61.2747 48.2412L61.1769 48.2857C61.1217 48.3138 61.0665 48.3418 61.0113 48.3698L61.111 46.9809C61.0561 46.601 61.2718 46.1905 61.4199 45.8249C61.4298 44.9782 60.6803 44.2618 60.1181 43.5823C60.008 40.9854 59.6521 34.249 60.7751 32.2564L60.8253 31.9004C59.3054 31.9346 57.1935 33.8744 56.0012 32.4786C54.1003 30.2531 55.2722 25.1682 56.2709 23.0235Z"/><path fill="#B6EBD2" transform="matrix(8.04688 0 0 8.04688 0.000244141 0)" d="M60.8754 31.0953C61.7255 29.4173 64.8634 29.5285 65.2925 31.0214C65.0031 33.0759 65.0788 36.6492 65.1031 38.8314L65.2373 39.9395L65.1909 44.1251C65.2241 44.9505 65.3958 46.3728 65.0091 47.0244C64.4145 47.1829 64.6486 47.1778 64.0256 46.9703L63.9546 47.757C62.6984 47.7598 62.3894 47.7234 61.2747 48.2412L61.1769 48.2857C61.1217 48.3138 61.0665 48.3418 61.0113 48.3698L61.111 46.9809C61.0561 46.601 61.2718 46.1905 61.4199 45.8249C61.4298 44.9782 60.6803 44.2618 60.1181 43.5823C60.008 40.9854 59.6521 34.249 60.7751 32.2564L60.8253 31.9004L60.9978 31.7097L60.8754 31.0953Z"/><path fill="#F2F5F6" transform="matrix(8.04688 0 0 8.04688 0.000244141 0)" d="M60.8754 31.0953C61.7255 29.4173 64.8634 29.5285 65.2925 31.0214C65.0031 33.0759 65.0788 36.6492 65.1031 38.8314L64.311 39.304C63.5336 38.2216 62.4447 37.6057 61.3356 36.875C60.9046 36.2278 61.0213 32.7547 60.9978 31.7097L60.8754 31.0953Z"/><path fill="#013901" transform="matrix(8.04688 0 0 8.04688 0.000244141 0)" d="M60.1181 43.5823C60.008 40.9854 59.6521 34.249 60.7751 32.2564C60.7748 34.4654 60.6505 41.1808 60.9685 43.0537L60.999 43.9881L65.1909 44.1251C65.2241 44.9505 65.3958 46.3728 65.0091 47.0244C64.4145 47.1829 64.6486 47.1778 64.0256 46.9703L63.9546 47.757C62.6984 47.7598 62.3894 47.7234 61.2747 48.2412L61.1769 48.2857C61.1217 48.3138 61.0665 48.3418 61.0113 48.3698L61.111 46.9809C61.0561 46.601 61.2718 46.1905 61.4199 45.8249C61.4298 44.9782 60.6803 44.2618 60.1181 43.5823Z"/><path fill="#07CF0A" transform="matrix(8.04688 0 0 8.04688 0.000244141 0)" d="M60.999 43.9881L65.1909 44.1251C65.2241 44.9505 65.3958 46.3728 65.0091 47.0244C64.4145 47.1829 64.6486 47.1778 64.0256 46.9703C63.7079 46.4894 62.0015 45.2947 60.999 43.9881Z"/><path fill="#9ABABF" transform="matrix(8.04688 0 0 8.04688 0.000244141 0)" d="M60.9978 31.7097C61.0213 32.7547 60.9046 36.2278 61.3356 36.875C62.4447 37.6057 63.5336 38.2216 64.311 39.304C64.0581 40.2909 64.1893 40.4549 63.5371 41.0544C62.4158 40.6377 61.8491 38.6367 61.1673 37.4392C61.1164 38.9618 61.1151 41.5907 60.9685 43.0537C60.6505 41.1808 60.7748 34.4654 60.7751 32.2564L60.8253 31.9004L60.9978 31.7097Z"/><path fill="#DDEBEC" transform="matrix(8.04688 0 0 8.04688 0.000244141 0)" d="M55.9732 26.8957C60.7086 26.7324 65.4515 26.8814 70.1868 26.8414C70.1884 28.3641 70.1903 29.6859 70.0746 31.208C68.893 31.2108 66.3159 31.2911 65.2925 31.0214C64.8634 29.5285 61.7255 29.4173 60.8754 31.0953C59.1333 31.2219 57.6625 31.2107 55.9144 31.1923C55.7629 29.3794 55.7902 28.7062 55.9732 26.8957Z"/><path fill="#015400" transform="matrix(8.04688 0 0 8.04688 0.000244141 0)" d="M55.9732 26.8957C56.2947 26.3774 56.7267 25.3883 57.3809 25.3367C59.7755 25.1478 68.5822 24.1253 70.0208 25.892L70.1868 26.8414C65.4515 26.8814 60.7086 26.7324 55.9732 26.8957Z"/><path fill="#015400" transform="matrix(8.04688 0 0 8.04688 0.000244141 0)" d="M65.2373 39.9395C65.7636 41.6917 65.576 43.5506 65.4433 45.3671C67.8441 45.2916 69.3121 45.0467 71.2835 46.5638C71.9754 47.7413 74.0295 50.5603 74.1621 51.4927L73.9714 51.5618L72.6551 49.9921C72.0709 49.2151 71.3415 48.6529 70.5988 48.0303C68.7096 47.7808 65.9266 47.7977 63.9546 47.757L64.0256 46.9703C64.6486 47.1778 64.4145 47.1829 65.0091 47.0244C65.3958 46.3728 65.2241 44.9505 65.1909 44.1251L65.2373 39.9395Z"/><path fill="#F2F5F6" transform="matrix(8.04688 0 0 8.04688 0.000244141 0)" d="M100.844 25.5711C101.946 27.28 102.87 28.1999 103.955 29.7064C103.993 31.6491 103.726 43.7952 104.464 44.5237C105.743 43.9346 109.898 43.2575 110.706 45.2354C111.277 46.6336 111.322 54.4808 109.732 54.7986C107.076 55.3293 103.047 52.9177 100.2 54.8582L100.257 55.1619C102.533 55.9947 104.692 55.2663 106.147 55.6863L106.076 55.8827L105.847 55.9924C106.041 57.195 106.044 58.1646 106.068 59.37L106 60.5145C103.871 62.4 97.9435 59.0864 99.3103 63.2885C98.1861 64.1711 97.7124 62.1275 95.7609 61.9355C95.0618 62.3939 94.7504 62.4889 93.9795 62.7598L93.9228 60.7474C93.9201 57.6272 93.939 54.7683 94.0896 51.6509C95.0474 49.9487 96.0465 49.2246 97.5459 48.0571C99.0862 47.8413 99.7815 47.8349 101.315 47.8532L101.588 47.6807C101.632 47.0471 99.5948 44.6519 99.0688 43.9862C100.357 43.9207 101.633 44.3875 102.586 43.9982C103.258 43.1332 103.079 42.8848 103.195 41.6538L103.245 40.0958C103.009 37.9113 103.256 34.928 103.044 32.423C103.096 31.8743 102.976 30.1798 102.946 29.5445C102.058 28.321 101.786 28.019 100.632 27.0478C100.61 26.9241 100.649 26.0001 100.655 25.8094L100.844 25.5711Z"/><path fill="#31681D" transform="matrix(8.04688 0 0 8.04688 0.000244141 0)" d="M100.844 25.5711C101.946 27.28 102.87 28.1999 103.955 29.7064C103.993 31.6491 103.726 43.7952 104.464 44.5237C105.743 43.9346 109.898 43.2575 110.706 45.2354C111.277 46.6336 111.322 54.4808 109.732 54.7986C107.076 55.3293 103.047 52.9177 100.2 54.8582L100.257 55.1619C102.533 55.9947 104.692 55.2663 106.147 55.6863L106.076 55.8827L105.847 55.9924C103.951 55.7963 100.317 56.2442 99.1275 55.3728C99.376 54.5083 99.4306 54.257 99.9934 53.534C101.293 52.743 108.236 53.1223 110.155 53.1863L110.224 49.8416C110.161 49.2047 110.171 48.6853 109.771 48.181C109.051 47.651 107.722 47.8055 106.775 47.8194C105.257 47.9229 102.526 48.4115 101.315 47.8532L101.588 47.6807C101.632 47.0471 99.5948 44.6519 99.0688 43.9862C100.357 43.9207 101.633 44.3875 102.586 43.9982C103.258 43.1332 103.079 42.8848 103.195 41.6538L103.245 40.0958C103.009 37.9113 103.256 34.928 103.044 32.423C103.096 31.8743 102.976 30.1798 102.946 29.5445C102.058 28.321 101.786 28.019 100.632 27.0478C100.61 26.9241 100.649 26.0001 100.655 25.8094L100.844 25.5711Z"/><path fill="#015400" transform="matrix(8.04688 0 0 8.04688 0.000244141 0)" d="M103.245 40.0958C104.016 42.4055 103.38 44.3209 104.254 45.4556C106.962 46.5259 110.439 42.9171 110.224 49.8416C110.161 49.2047 110.171 48.6853 109.771 48.181C109.051 47.651 107.722 47.8055 106.775 47.8194C105.257 47.9229 102.526 48.4115 101.315 47.8532L101.588 47.6807C101.632 47.0471 99.5948 44.6519 99.0688 43.9862C100.357 43.9207 101.633 44.3875 102.586 43.9982C103.258 43.1332 103.079 42.8848 103.195 41.6538L103.245 40.0958Z"/><path fill="#07CF0A" transform="matrix(8.04688 0 0 8.04688 0.000244141 0)" d="M99.0688 43.9862C100.357 43.9207 101.633 44.3875 102.586 43.9982C103.258 43.1332 103.079 42.8848 103.195 41.6538C103.3 43.6829 103.457 45.7919 103.301 47.811C104.295 47.8038 105.825 47.7459 106.775 47.8194C105.257 47.9229 102.526 48.4115 101.315 47.8532L101.588 47.6807C101.632 47.0471 99.5948 44.6519 99.0688 43.9862Z"/><path fill="#B7CDD2" transform="matrix(8.04688 0 0 8.04688 0.000244141 0)" d="M98.4845 59.4834C100.997 59.1248 103.546 59.0867 106.068 59.37L106 60.5145C103.871 62.4 97.9435 59.0864 99.3103 63.2885C98.1861 64.1711 97.7124 62.1275 95.7609 61.9355C96.6729 60.849 97.3303 60.2911 98.4845 59.4834Z"/><defs><linearGradient id="gradient_3" gradientUnits="userSpaceOnUse" x1="101.63089" y1="61.843491" x2="102.07996" y2="68.340096"><stop offset="0" stop-color="#97B1B9"/><stop offset="1" stop-color="#CCE5E8"/></linearGradient></defs><path fill="url(#gradient_3)" transform="matrix(8.04688 0 0 8.04688 0.000244141 0)" d="M105.847 55.9924L106.076 55.8827C106.404 57.3367 106.238 60.4442 106.168 62.0481C104.269 62.0853 102.25 61.9682 100.459 62.4601L100.403 62.6906L100.792 62.834L100.787 62.4104L101.047 62.3599L101.307 62.925C103.163 63.143 104.782 63.1186 106.644 62.9144C106.786 61.8027 106.794 61.4335 106.711 60.3154C111.409 58.692 111.074 62.6332 111.012 65.788L111.257 68.7632C110.634 67.3375 110.238 66.2936 110.066 64.7411C110.053 65.7688 110.114 68.2821 109.8 69.1094C109.897 69.834 110.055 70.5966 109.905 71.3039L109.079 71.2457C107.19 70.699 100.124 70.9491 97.9142 70.999C97.7989 70.9998 97.6837 70.9979 97.5685 70.9933C95.5334 70.9013 93.9273 68.6475 92.5529 67.1385C93.0265 66.8054 93.3192 66.2846 93.6413 65.7991L93.9228 60.7474L93.9795 62.7598C94.7504 62.4889 95.0618 62.3939 95.7609 61.9355C97.7124 62.1275 98.1861 64.1711 99.3103 63.2885C97.9435 59.0864 103.871 62.4 106 60.5145L106.068 59.37C106.044 58.1646 106.041 57.195 105.847 55.9924Z"/><path fill="#06C70C" transform="matrix(8.04688 0 0 8.04688 0.000244141 0)" d="M93.9228 60.7474L93.9795 62.7598C93.9078 65.4797 94.1279 67.41 96.6713 69.0095C100.667 68.9695 106.063 68.5634 109.8 69.1094C109.897 69.834 110.055 70.5966 109.905 71.3039L109.079 71.2457C107.19 70.699 100.124 70.9491 97.9142 70.999C97.7989 70.9998 97.6837 70.9979 97.5685 70.9933C95.5334 70.9013 93.9273 68.6475 92.5529 67.1385C93.0265 66.8054 93.3192 66.2846 93.6413 65.7991L93.9228 60.7474Z"/><path fill="#013901" transform="matrix(8.04688 0 0 8.04688 0.000244141 0)" d="M105.847 55.9924L106.076 55.8827C106.404 57.3367 106.238 60.4442 106.168 62.0481C104.269 62.0853 102.25 61.9682 100.459 62.4601L100.403 62.6906L100.792 62.834L100.787 62.4104L101.047 62.3599L101.307 62.925C103.163 63.143 104.782 63.1186 106.644 62.9144C106.786 61.8027 106.794 61.4335 106.711 60.3154C111.409 58.692 111.074 62.6332 111.012 65.788L111.257 68.7632C110.634 67.3375 110.238 66.2936 110.066 64.7411L109.888 64.1229C108.201 63.4894 102.323 64.4449 99.3103 63.2885C97.9435 59.0864 103.871 62.4 106 60.5145L106.068 59.37C106.044 58.1646 106.041 57.195 105.847 55.9924Z"/><path fill="#246B08" transform="matrix(8.04688 0 0 8.04688 0.000244141 0)" d="M106.711 60.3154C111.409 58.692 111.074 62.6332 111.012 65.788L110.358 62.6644C108.509 61.9573 108.071 61.4616 106.644 62.9144C106.786 61.8027 106.794 61.4335 106.711 60.3154Z"/><path fill="#013901" transform="matrix(8.04688 0 0 8.04688 0.000244141 0)" d="M94.235 37.9008C95.6951 37.7706 98.4453 37.1129 98.9599 38.6762C98.8373 40.7285 98.9111 41.9244 99.0688 43.9862C99.5948 44.6519 101.632 47.0471 101.588 47.6807L101.315 47.8532C99.7815 47.8349 99.0862 47.8413 97.5459 48.0571C96.0465 49.2246 95.0474 49.9487 94.0896 51.6509C93.939 54.7683 93.9201 57.6272 93.9228 60.7474L93.6413 65.7991C93.3192 66.2846 93.0265 66.8054 92.5529 67.1385L92.2308 67.2406C92.113 67.7376 92.0493 67.9367 92.0744 68.4471L91.3148 67.7828C91.0794 66.4117 91.0996 65.7478 91.3633 64.3978L91.5962 64.5509C92.1163 63.9469 91.8445 63.4339 92.0773 62.5026C92.2933 61.6384 92.9103 60.0039 92.9676 59.2194C93.3619 53.8157 91.8904 51.8827 95.8693 47.4451C96.0871 45.3084 95.7218 44.4902 97.7547 43.4459C97.9174 41.9973 97.9741 40.4872 98.0517 39.028C97.0688 39.0733 95.9567 39.0637 94.9612 39.0786C94.9874 39.592 95.0086 40.1056 95.0247 40.6193C95.0858 42.6731 95.0937 43.3906 93.7198 44.8502L93.7326 44.347C94.0495 43.5822 94.0087 42.6383 94.0333 41.795C94.1759 40.9532 94.1998 38.841 94.235 37.9008Z"/><path fill="#06C70C" transform="matrix(8.04688 0 0 8.04688 0.000244141 0)" d="M21.8082 96.045C22.9024 96.1043 24.3499 96.2483 25.3911 96.0238L25.7587 96.0489L27.3322 96.1538C26.7441 96.7415 24.664 98.9721 24.1071 99.3242C23.6192 98.9054 23.4295 98.6735 22.7938 98.6544C22.0262 99.3811 22.1783 100.295 22.2033 101.312C22.0148 100.834 21.8308 97.7995 21.6906 96.8753L21.8082 96.045Z"/><path transform="matrix(8.04688 0 0 8.04688 0.000244141 0)" d="M92.0744 68.4471C92.0493 67.9367 92.113 67.7376 92.2308 67.2406L92.5529 67.1385C93.9273 68.6475 95.5334 70.9013 97.5685 70.9933C97.6837 70.9979 97.7989 70.9998 97.9142 70.999C100.465 71.6057 102.687 71.0164 104.709 71.3737C104.016 71.5309 102.729 71.7798 102.098 71.9772C100.42 72.0292 96.7993 72.2962 95.3266 71.6508L92.0744 68.4471Z"/><path fill="#07CF0A" transform="matrix(8.04688 0 0 8.04688 0.000244141 0)" d="M110.066 64.7411C110.238 66.2936 110.634 67.3375 111.257 68.7632C112.024 69.5102 113.724 70.9406 113.83 71.8898C113.378 72.4923 110.55 71.6042 109.905 71.3039C110.055 70.5966 109.897 69.834 109.8 69.1094C110.114 68.2821 110.053 65.7688 110.066 64.7411Z"/><path fill="#07CF0A" transform="matrix(8.04688 0 0 8.04688 0.000244141 0)" d="M20.1244 68.6239C20.5277 67.794 20.7976 65.381 20.9018 64.3978C20.9139 65.3002 20.8995 68.5122 21.0927 69.1808C21.1216 70.1199 21.1538 70.5043 20.9413 71.4247C19.8528 72.0347 17.3753 72.1641 16.0856 72.2795C17.044 71.1807 18.9527 69.6283 20.1244 68.6239Z"/><path fill="#051303" fill-opacity="0.070588239" transform="matrix(8.04688 0 0 8.04688 0.000244141 0)" d="M106.147 55.6863C107.113 56.8282 106.269 59.1462 106.711 60.3154C106.794 61.4335 106.786 61.8027 106.644 62.9144C104.782 63.1186 103.163 63.143 101.307 62.925L101.047 62.3599L100.787 62.4104L100.792 62.834L100.403 62.6906L100.459 62.4601C102.25 61.9682 104.269 62.0853 106.168 62.0481C106.238 60.4442 106.404 57.3367 106.076 55.8827L106.147 55.6863Z"/><path transform="matrix(8.04688 0 0 8.04688 0.000244141 0)" d="M33.9814 71.9963C32.6844 72.0195 27.3224 72.3189 26.5703 71.4293C27.6419 70.6293 32.4802 71.0458 34.037 71.1208C33.9145 71.4902 33.8382 71.6222 33.9814 71.9963Z"/><path fill="#051303" fill-opacity="0.062745102" transform="matrix(8.04688 0 0 8.04688 0.000244141 0)" d="M87.9761 38.4745L88.4647 39.3252C88.9364 38.5063 88.3453 36.9817 88.9344 35.3443C89.0026 38.1357 89.2137 41.7493 88.5332 44.3979L88.4168 44.43C88.0015 42.1377 88.0013 40.8249 87.9761 38.4745Z"/><path fill="#030901" fill-opacity="0.27450982" transform="matrix(8.04688 0 0 8.04688 0.000244141 0)" d="M97.9142 70.999C100.124 70.9491 107.19 70.699 109.079 71.2457C108.435 71.2596 106.837 71.1815 106.413 71.4853L106.715 71.902C105.765 71.7928 103.23 71.9413 102.098 71.9772C102.729 71.7798 104.016 71.5309 104.709 71.3737C102.687 71.0164 100.465 71.6057 97.9142 70.999Z"/><path fill="#07CF0A" fill-opacity="0.98823529" transform="matrix(8.04688 0 0 8.04688 0.000244141 0)" d="M22.2033 101.312C22.1783 100.295 22.0262 99.3811 22.7938 98.6544C23.4295 98.6735 23.6192 98.9054 24.1071 99.3242C23.6657 99.8158 22.6818 100.971 22.2033 101.312Z"/><path transform="matrix(8.04688 0 0 8.04688 0.000244141 0)" d="M20.7354 60.0525C21.1223 60.0722 22.2282 60.1041 22.549 60.173L22.8944 60.6162C22.1975 61.2429 21.4424 60.9574 20.6756 60.6826L20.7354 60.0525Z"/><path transform="matrix(8.04688 0 0 8.04688 0.000244141 0)" d="M50.0692 35.347C50.2658 36.1917 50.2329 36.8735 50.8002 37.2313C50.8815 37.6281 50.7331 38.1049 50.641 38.5135L50.3721 38.5132C49.8658 37.4513 50.0054 36.5079 50.0692 35.347Z"/><path fill="#051303" fill-opacity="0.13333334" transform="matrix(8.04688 0 0 8.04688 0.000244141 0)" d="M40.8979 44.6743L41.5666 45.0339L40.2407 45.9781L40.0042 45.5087L40.8979 44.6743Z"/></svg>